<svg class="svg-icon" style="width: 1em; height: 1em;vertical-align: middle;fill: currentColor;overflow: hidden;" viewBox="0 0 1024 1024" version="1.1" xmlns="http://www.w3.org/2000/svg"><path d="M512 909.061224c-218.906122 0-397.061224-178.155102-397.061224-397.061224s178.155102-397.061224 397.061224-397.061224 397.061224 178.155102 397.061224 397.061224-178.155102 397.061224-397.061224 397.061224z" fill="#E5404F" /><path d="M363.102041 680.75102c-5.22449 0-9.926531-2.089796-14.106123-5.746938-7.836735-7.836735-7.836735-20.37551 0-28.212245l297.795919-297.795919c7.836735-7.836735 20.37551-7.836735 28.212245 0 7.836735 7.836735 7.836735 20.37551 0 28.212245l-297.795919 297.795919c-4.179592 3.657143-8.881633 5.746939-14.106122 5.746938z" fill="#FFEEF0" /><path d="M660.897959 680.75102c-5.22449 0-9.926531-2.089796-14.106122-5.746938l-297.795919-297.795919c-7.836735-7.836735-7.836735-20.37551 0-28.212245 7.836735-7.836735 20.37551-7.836735 28.212245 0l297.795919 297.795919c7.836735 7.836735 7.836735 20.37551 0 28.212245-4.179592 3.657143-8.881633 5.746939-14.106123 5.746938z" fill="#FFEEF0" /></svg>