<?xml version="1.0" encoding="UTF-8" standalone="no"?>
<svg
   viewBox="0 0 108.00001 49.177097"
   version="1.1"
   id="svg275"
   sodipodi:docname="logo_text.svg"
   width="108.00001"
   height="49.177097"
   inkscape:version="1.3 (0e150ed6c4, 2023-07-21)"
   xmlns:inkscape="http://www.inkscape.org/namespaces/inkscape"
   xmlns:sodipodi="http://sodipodi.sourceforge.net/DTD/sodipodi-0.dtd"
   xmlns="http://www.w3.org/2000/svg"
   xmlns:svg="http://www.w3.org/2000/svg">
  <sodipodi:namedview
     id="namedview275"
     pagecolor="#ffffff"
     bordercolor="#999999"
     borderopacity="1"
     inkscape:showpageshadow="2"
     inkscape:pageopacity="0"
     inkscape:pagecheckerboard="0"
     inkscape:deskcolor="#d1d1d1"
     inkscape:zoom="7.06"
     inkscape:cx="59.915014"
     inkscape:cy="20.325779"
     inkscape:window-width="3440"
     inkscape:window-height="1417"
     inkscape:window-x="-8"
     inkscape:window-y="-8"
     inkscape:window-maximized="1"
     inkscape:current-layer="svg275" />
  <defs
     id="defs1">
    <style
       id="style1">.cls-1{fill:#fff;}.cls-2{fill:#8bc025;}.cls-3{fill:#ff7e40;}.cls-4{fill:#483b80;}.cls-5{fill:#2abbbc;}.cls-6{fill:#fcfbfb;}.cls-7{fill:#fcfbfa;}.cls-8{fill:#473c80;}.cls-9{fill:#8cc025;}.cls-10{fill:#483d81;}.cls-11{fill:#4a3d81;}.cls-12{fill:#4a3e81;}.cls-13{fill:#493c81;}.cls-14{fill:#493c80;}.cls-15{fill:#51528f;}.cls-16{fill:#8fc12d;}.cls-17{fill:#fbfafa;}.cls-18{fill:#fcfcfa;}.cls-19{fill:#4d4084;}.cls-20{fill:#545490;}.cls-21{fill:#5b5a94;}.cls-22{fill:#5a5993;}.cls-23{fill:#504386;}.cls-24{fill:#4d4184;}.cls-25{fill:#5f5c96;}.cls-26{fill:#555591;}.cls-27{fill:#615e97;}.cls-28{fill:#fbf8f9;}.cls-29{fill:#575793;}.cls-30{fill:#fcf6f4;}.cls-31{fill:#faf7f8;}.cls-32{fill:#514587;}.cls-33{fill:#68629b;}.cls-34{fill:#5b4f8e;}.cls-35{fill:#f8f4f6;}.cls-36{fill:#504487;}.cls-37{fill:#4f4385;}.cls-38{fill:#564b8b;}.cls-39{fill:#ede8f0;}.cls-40{fill:#70699f;}.cls-41{fill:#575792;}.cls-42{fill:#595793;}.cls-43{fill:#716ba1;}.cls-44{fill:#f8f5f7;}.cls-45{fill:#ede6ea;}.cls-46{fill:#67639b;}.cls-47{fill:#f6f2f5;}.cls-48{fill:#eeeae6;}.cls-49{fill:#ffa04f;}.cls-50{fill:#65619a;}.cls-51{fill:#646199;}.cls-52{fill:#f2ecf3;}.cls-53{fill:#5e5d97;}.cls-54{fill:#faf4f7;}.cls-55{fill:#5d5c96;}.cls-56{fill:#5c4f8e;}.cls-57{fill:#f9f5f7;}.cls-58{fill:#6d679e;}.cls-59{fill:#665a96;}.cls-60{fill:#655995;}.cls-61{fill:#6e689f;}.cls-62{fill:#706aa0;}.cls-63{fill:#acd063;}.cls-64{fill:#6b669c;}.cls-65{fill:#706aa1;}.cls-66{fill:#f2edf3;}.cls-67{fill:#746ea3;}.cls-68{fill:#67649c;}.cls-69{fill:#74669e;}.cls-70{fill:#6f629b;}.cls-71{fill:#5e518f;}.cls-72{fill:#625592;}.cls-73{fill:#f7f3f6;}.cls-74{fill:#ffa657;}.cls-75{fill:#68c7c7;}.cls-76{fill:#f8f1ef;}.cls-77{fill:#867fae;}.cls-78{fill:#695b96;}.cls-79{fill:#8480af;}.cls-80{fill:#6d609a;}.cls-81{fill:#ebd3d5;}.cls-82{fill:#9285b4;}.cls-83{fill:#8a7cae;}.cls-84{fill:#f5eff5;}.cls-85{fill:#e7dfeb;}.cls-86{fill:#9180b1;}.cls-87{fill:#615492;}.cls-88{fill:#ebe4ee;}.cls-89{fill:#7c72a5;}.cls-90{fill:#8780af;}.cls-91{fill:#f0f2db;}.cls-92{fill:#635794;}.cls-93{fill:#9f95c0;}.cls-94{fill:#a793be;}.cls-95{fill:#8476a9;}.cls-96{fill:#eac8c5;}.cls-97{fill:#726aa0;}.cls-98{fill:#8e7eb0;}.cls-99{fill:#ff9f50;}.cls-100{fill:#aed36d;}.cls-101{fill:#6f5e99;}.cls-102{fill:#7b74a7;}.cls-103{fill:#877aac;}.cls-104{fill:#b4a8cb;}.cls-105{fill:#958ab7;}.cls-106{fill:#665b96;}.cls-107{fill:#d8cadf;}.cls-108{fill:#7a73a5;}.cls-109{fill:#8279ab;}.cls-110{fill:#9d8dba;}.cls-111{fill:#887aac;}.cls-112{fill:#6b5d98;}.cls-113{fill:#a9a0c7;}.cls-114{fill:#e9e1ec;}.cls-115{fill:#837aac;}.cls-116{fill:#6c639c;}.cls-117{fill:#7c6da3;}.cls-118{fill:#70669d;}.cls-119{fill:#fdfdfc;}.cls-120{fill:#4a3e82;}.cls-121{fill:#4b3f83;}.cls-122{fill:#554a8a;}.cls-123{fill:#b0a0c7;}.cls-124{fill:#6d5f9a;}.cls-125{fill:#524587;}.cls-126{fill:#605491;}.cls-127{fill:#8e83b2;}.cls-128{fill:#8d87b6;}.cls-129{fill:#726ca3;}.cls-130{fill:#6d669d;}.cls-131{fill:#b0d16b;}.cls-132{fill:#fcfcfb;}.cls-133{fill:#fdfcfb;}.cls-134{fill:#6f5795;}.cls-135{fill:#a3cb51;}.cls-136{fill:#7d75a8;}.cls-137{fill:#a79ac3;}.cls-138{fill:#aacf63;}.cls-139{fill:#bbafce;}.cls-140{fill:#70639c;}.cls-141{fill:#d9cadf;}</style>
  </defs>
  <title
     id="title1">flaticon</title>
  <g
     id="g1"
     transform="translate(-25.607214,-97.593668)">
    <path
       class="cls-4"
       d="m 25.607214,98.793668 h 4.77 v 16.720002 h 10.33 v 3.89 h -15.1 z"
       id="path266" />
    <path
       class="cls-4"
       d="m 55.277214,105.08367 a 6.67,6.67 0 0 1 2,5.28 v 9 h -4.32 v -2 c -0.87,1.48 -2.48,2.21 -4.83,2.21 a 7.41,7.41 0 0 1 -3.17,-0.62 4.73,4.73 0 0 1 -2,-1.7 4.47,4.47 0 0 1 -0.71,-2.48 4.15,4.15 0 0 1 1.66,-3.47 8.53,8.53 0 0 1 5.14,-1.26 h 3.65 a 2.93,2.93 0 0 0 -0.91,-2.32 4.07,4.07 0 0 0 -2.74,-0.81 8.21,8.21 0 0 0 -2.49,0.4 6.75,6.75 0 0 0 -2.07,1.08 l -1.65,-3.21 a 9.78,9.78 0 0 1 3.11,-1.41 13.57,13.57 0 0 1 3.72,-0.5 8.22,8.22 0 0 1 5.61,1.81 z m -3.91,10.92 a 3,3 0 0 0 1.29,-1.61 v -1.62 h -3.15 q -2.82,0 -2.82,1.86 a 1.66,1.66 0 0 0 0.69,1.4 3.13,3.13 0 0 0 1.9,0.51 4,4 0 0 0 2.09,-0.54 z"
       id="path267" />
    <path
       class="cls-4"
       d="m 74.777214,104.34367 a 7.23,7.23 0 0 1 2.83,2.86 9.41,9.41 0 0 1 0,8.56 7.23,7.23 0 0 1 -2.83,2.83 8.11,8.11 0 0 1 -4,1 6.06,6.06 0 0 1 -5,-2.06 v 1.83 h -4.38 V 97.593668 h 4.59 v 7.680002 a 6.11,6.11 0 0 1 4.77,-1.91 8,8 0 0 1 4.02,0.98 z m -1.91,10.33 a 5.08,5.08 0 0 0 0,-6.39 4.13,4.13 0 0 0 -5.8,0 5.08,5.08 0 0 0 0,6.39 4.1,4.1 0 0 0 5.8,0 z"
       id="path268" />
    <path
       class="cls-4"
       d="m 84.357214,102.68367 h -6.59 v -3.890002 h 18 v 3.890002 h -6.6 v 16.72 h -4.81 z"
       id="path269" />
    <path
       class="cls-4"
       d="M 111.76722,112.77367 H 99.767214 a 3.67,3.67 0 0 0 1.530006,2.33 5,5 0 0 0 3,0.85 6.17,6.17 0 0 0 2.19,-0.36 5.39,5.39 0 0 0 1.78,-1.17 l 2.45,2.65 q -2.21,2.52 -6.52,2.52 a 10.46,10.46 0 0 1 -4.740006,-1 7.78,7.78 0 0 1 -3.18,-2.9 8.55,8.55 0 0 1 0,-8.41 7.85,7.85 0 0 1 3,-2.91 9.41,9.41 0 0 1 8.520006,0 7.24,7.24 0 0 1 3,2.87 8.5,8.5 0 0 1 1.08,4.34 q -0.02,0.01 -0.11,1.19 z m -10.75,-5.09 a 3.75,3.75 0 0 0 -1.290006,2.42 h 7.800006 a 3.78,3.78 0 0 0 -1.3,-2.4 3.85,3.85 0 0 0 -2.59,-0.9 4,4 0 0 0 -2.62,0.88 z"
       id="path270" />
    <path
       class="cls-4"
       d="m 119.40722,118.38367 a 10.26,10.26 0 0 1 -4,-3.8 11.12,11.12 0 0 1 0,-11 10.3,10.3 0 0 1 4,-3.790002 11.77,11.77 0 0 1 5.72,-1.37 11.94,11.94 0 0 1 4.84,0.94 9.64,9.64 0 0 1 3.64,2.730002 l -3.06,2.82 a 6.6,6.6 0 0 0 -5.18,-2.41 6.88,6.88 0 0 0 -3.42,0.84 6,6 0 0 0 -2.34,2.34 7.36,7.36 0 0 0 0,6.83 6,6 0 0 0 2.34,2.34 6.88,6.88 0 0 0 3.42,0.84 6.57,6.57 0 0 0 5.18,-2.44 l 3.06,2.82 a 9.55,9.55 0 0 1 -3.65,2.74 12.07,12.07 0 0 1 -4.86,0.94 11.82,11.82 0 0 1 -5.69,-1.37 z"
       id="path271" />
    <path
       class="cls-4"
       d="m 42.337214,144.29367 c -1.63,-1.63 -2.45,-3.95 -2.45,-7 v -11.51 h 4.72 v 11.36 c 0,3.69 1.54,5.53 4.6,5.53 a 4.3,4.3 0 0 0 3.41,-1.34 6.2,6.2 0 0 0 1.18,-4.19 v -11.36 h 4.71 v 11.53 c 0,3 -0.82,5.35 -2.46,7 a 9.32,9.32 0 0 1 -6.87,2.44 9.33,9.33 0 0 1 -6.84,-2.46 z"
       id="path272" />
    <path
       class="cls-4"
       d="m 68.027214,129.59367 v 5.45 h 9.58 v 3.82 h -9.58 v 7.51 h -4.77 v -20.6 h 15.57 v 3.82 z"
       id="path273" />
    <path
       class="cls-4"
       d="m 84.047214,146.07367 a 10.94,10.94 0 0 1 -3.66,-1.72 l 1.62,-3.59 a 10.78,10.78 0 0 0 3.15,1.56 11.91,11.91 0 0 0 3.65,0.59 5.75,5.75 0 0 0 3,-0.61 1.81,1.81 0 0 0 1,-1.6 1.53,1.53 0 0 0 -0.57,-1.22 4.19,4.19 0 0 0 -1.47,-0.78 c -0.6,-0.2 -1.41,-0.41 -2.43,-0.65 a 31.67,31.67 0 0 1 -3.86,-1.12 6.21,6.21 0 0 1 -2.57,-1.79 4.86,4.86 0 0 1 -1.08,-3.3 5.77,5.77 0 0 1 1,-3.25 6.59,6.59 0 0 1 2.93,-2.31 12,12 0 0 1 4.79,-0.86 16,16 0 0 1 3.85,0.47 11.48,11.48 0 0 1 3.3,1.36 l -1.47,3.62 a 11.51,11.51 0 0 0 -5.71,-1.62 5.28,5.28 0 0 0 -3,0.65 2,2 0 0 0 -1,1.7 1.67,1.67 0 0 0 1.1,1.58 17.49,17.49 0 0 0 3.37,1 35.73,35.73 0 0 1 3.86,1.12 6.46,6.46 0 0 1 2.58,1.77 4.74,4.74 0 0 1 1.07,3.26 5.69,5.69 0 0 1 -1,3.23 6.69,6.69 0 0 1 -3,2.31 12.09,12.09 0 0 1 -4.8,0.85 16.94,16.94 0 0 1 -4.65,-0.65 z"
       id="path274" />
    <path
       class="cls-4"
       d="m 104.94722,145.36367 a 10.2,10.2 0 0 1 -4,-3.79 11.05,11.05 0 0 1 0,-11 10.23,10.23 0 0 1 4,-3.8 12,12 0 0 1 5.73,-1.37 12.11,12.11 0 0 1 4.84,0.94 9.72,9.72 0 0 1 3.64,2.71 l -3.06,2.83 a 6.6,6.6 0 0 0 -5.19,-2.42 6.87,6.87 0 0 0 -3.41,0.84 6,6 0 0 0 -2.34,2.34 7.36,7.36 0 0 0 0,6.83 6,6 0 0 0 2.34,2.34 6.87,6.87 0 0 0 3.41,0.84 6.56,6.56 0 0 0 5.19,-2.44 l 3.06,2.82 a 9.55,9.55 0 0 1 -3.65,2.74 12.11,12.11 0 0 1 -4.86,0.94 11.77,11.77 0 0 1 -5.7,-1.35 z"
       id="path275" />
  </g>
</svg>
