<?xml version="1.0" encoding="UTF-8" standalone="no"?>
<svg
   viewBox="0 0 87.995269 77.400001"
   version="1.1"
   id="svg275"
   sodipodi:docname="logo_icon.svg"
   width="87.99527"
   height="77.400002"
   inkscape:version="1.3 (0e150ed6c4, 2023-07-21)"
   xmlns:inkscape="http://www.inkscape.org/namespaces/inkscape"
   xmlns:sodipodi="http://sodipodi.sourceforge.net/DTD/sodipodi-0.dtd"
   xmlns="http://www.w3.org/2000/svg"
   xmlns:svg="http://www.w3.org/2000/svg">
  <sodipodi:namedview
     id="namedview275"
     pagecolor="#ffffff"
     bordercolor="#999999"
     borderopacity="1"
     inkscape:showpageshadow="2"
     inkscape:pageopacity="0"
     inkscape:pagecheckerboard="0"
     inkscape:deskcolor="#d1d1d1"
     inkscape:zoom="4.9921739"
     inkscape:cx="68.507229"
     inkscape:cy="37.358474"
     inkscape:window-width="3440"
     inkscape:window-height="1417"
     inkscape:window-x="-8"
     inkscape:window-y="-8"
     inkscape:window-maximized="1"
     inkscape:current-layer="svg275" />
  <defs
     id="defs1">
    <style
       id="style1">.cls-1{fill:#fff;}.cls-2{fill:#8bc025;}.cls-3{fill:#ff7e40;}.cls-4{fill:#483b80;}.cls-5{fill:#2abbbc;}.cls-6{fill:#fcfbfb;}.cls-7{fill:#fcfbfa;}.cls-8{fill:#473c80;}.cls-9{fill:#8cc025;}.cls-10{fill:#483d81;}.cls-11{fill:#4a3d81;}.cls-12{fill:#4a3e81;}.cls-13{fill:#493c81;}.cls-14{fill:#493c80;}.cls-15{fill:#51528f;}.cls-16{fill:#8fc12d;}.cls-17{fill:#fbfafa;}.cls-18{fill:#fcfcfa;}.cls-19{fill:#4d4084;}.cls-20{fill:#545490;}.cls-21{fill:#5b5a94;}.cls-22{fill:#5a5993;}.cls-23{fill:#504386;}.cls-24{fill:#4d4184;}.cls-25{fill:#5f5c96;}.cls-26{fill:#555591;}.cls-27{fill:#615e97;}.cls-28{fill:#fbf8f9;}.cls-29{fill:#575793;}.cls-30{fill:#fcf6f4;}.cls-31{fill:#faf7f8;}.cls-32{fill:#514587;}.cls-33{fill:#68629b;}.cls-34{fill:#5b4f8e;}.cls-35{fill:#f8f4f6;}.cls-36{fill:#504487;}.cls-37{fill:#4f4385;}.cls-38{fill:#564b8b;}.cls-39{fill:#ede8f0;}.cls-40{fill:#70699f;}.cls-41{fill:#575792;}.cls-42{fill:#595793;}.cls-43{fill:#716ba1;}.cls-44{fill:#f8f5f7;}.cls-45{fill:#ede6ea;}.cls-46{fill:#67639b;}.cls-47{fill:#f6f2f5;}.cls-48{fill:#eeeae6;}.cls-49{fill:#ffa04f;}.cls-50{fill:#65619a;}.cls-51{fill:#646199;}.cls-52{fill:#f2ecf3;}.cls-53{fill:#5e5d97;}.cls-54{fill:#faf4f7;}.cls-55{fill:#5d5c96;}.cls-56{fill:#5c4f8e;}.cls-57{fill:#f9f5f7;}.cls-58{fill:#6d679e;}.cls-59{fill:#665a96;}.cls-60{fill:#655995;}.cls-61{fill:#6e689f;}.cls-62{fill:#706aa0;}.cls-63{fill:#acd063;}.cls-64{fill:#6b669c;}.cls-65{fill:#706aa1;}.cls-66{fill:#f2edf3;}.cls-67{fill:#746ea3;}.cls-68{fill:#67649c;}.cls-69{fill:#74669e;}.cls-70{fill:#6f629b;}.cls-71{fill:#5e518f;}.cls-72{fill:#625592;}.cls-73{fill:#f7f3f6;}.cls-74{fill:#ffa657;}.cls-75{fill:#68c7c7;}.cls-76{fill:#f8f1ef;}.cls-77{fill:#867fae;}.cls-78{fill:#695b96;}.cls-79{fill:#8480af;}.cls-80{fill:#6d609a;}.cls-81{fill:#ebd3d5;}.cls-82{fill:#9285b4;}.cls-83{fill:#8a7cae;}.cls-84{fill:#f5eff5;}.cls-85{fill:#e7dfeb;}.cls-86{fill:#9180b1;}.cls-87{fill:#615492;}.cls-88{fill:#ebe4ee;}.cls-89{fill:#7c72a5;}.cls-90{fill:#8780af;}.cls-91{fill:#f0f2db;}.cls-92{fill:#635794;}.cls-93{fill:#9f95c0;}.cls-94{fill:#a793be;}.cls-95{fill:#8476a9;}.cls-96{fill:#eac8c5;}.cls-97{fill:#726aa0;}.cls-98{fill:#8e7eb0;}.cls-99{fill:#ff9f50;}.cls-100{fill:#aed36d;}.cls-101{fill:#6f5e99;}.cls-102{fill:#7b74a7;}.cls-103{fill:#877aac;}.cls-104{fill:#b4a8cb;}.cls-105{fill:#958ab7;}.cls-106{fill:#665b96;}.cls-107{fill:#d8cadf;}.cls-108{fill:#7a73a5;}.cls-109{fill:#8279ab;}.cls-110{fill:#9d8dba;}.cls-111{fill:#887aac;}.cls-112{fill:#6b5d98;}.cls-113{fill:#a9a0c7;}.cls-114{fill:#e9e1ec;}.cls-115{fill:#837aac;}.cls-116{fill:#6c639c;}.cls-117{fill:#7c6da3;}.cls-118{fill:#70669d;}.cls-119{fill:#fdfdfc;}.cls-120{fill:#4a3e82;}.cls-121{fill:#4b3f83;}.cls-122{fill:#554a8a;}.cls-123{fill:#b0a0c7;}.cls-124{fill:#6d5f9a;}.cls-125{fill:#524587;}.cls-126{fill:#605491;}.cls-127{fill:#8e83b2;}.cls-128{fill:#8d87b6;}.cls-129{fill:#726ca3;}.cls-130{fill:#6d669d;}.cls-131{fill:#b0d16b;}.cls-132{fill:#fcfcfb;}.cls-133{fill:#fdfcfb;}.cls-134{fill:#6f5795;}.cls-135{fill:#a3cb51;}.cls-136{fill:#7d75a8;}.cls-137{fill:#a79ac3;}.cls-138{fill:#aacf63;}.cls-139{fill:#bbafce;}.cls-140{fill:#70639c;}.cls-141{fill:#d9cadf;}</style>
  </defs>
  <title
     id="title1">flaticon</title>
  <g
     id="g1"
     transform="translate(-35.607978,-12.443665)">
    <rect
       class="cls-2"
       x="-0.49938646"
       y="64.248131"
       width="87.720001"
       height="39.669998"
       rx="13.84"
       transform="rotate(-30)"
       id="rect2"
       ry="13.84" />
    <rect
       class="cls-3"
       x="-28.185396"
       y="50.389309"
       width="39.669998"
       height="87.720001"
       rx="13.84"
       transform="rotate(-62.34)"
       id="rect3"
       ry="13.84" />
    <rect
       class="cls-4"
       x="-69.02317"
       y="36.971516"
       width="39.669998"
       height="87.720001"
       rx="13.84"
       transform="rotate(-88.6)"
       id="rect4"
       ry="13.84" />
    <ellipse
       class="cls-1"
       cx="79.607216"
       cy="51.143665"
       rx="39.990002"
       ry="38.700001"
       id="ellipse4" />
    <path
       class="cls-2"
       d="m 74.967214,51.743668 a 17,17 0 0 1 0,-2.67 7.4,7.4 0 0 1 0.69,-2 3.54,3.54 0 0 1 1,-1.47 6.3,6.3 0 0 1 1.93,-0.9 4.1,4.1 0 0 1 2.88,0.45 3.39,3.39 0 0 1 1.06,0.9 c 2.08,2.54 2.82,5.54 3.28,8.69 a 20.48,20.48 0 0 1 -0.06,6.72 4.15,4.15 0 0 1 -1.87,2.92 5,5 0 0 1 -1.4,0.71 4.76,4.76 0 0 1 -5,-2.18 23,23 0 0 1 -2.51,-11.17 z"
       id="path4" />
    <path
       class="cls-2"
       d="m 55.197214,54.133668 a 10.83,10.83 0 0 1 0.34,-2.54 2.91,2.91 0 0 1 2.19,-2.4 1.86,1.86 0 0 1 1.32,0.24 c 1.25,0.71 1.63,2 2.1,3.18 a 33.78,33.78 0 0 1 1.75,6.94 c 0.18,1.08 0.34,2.17 0.45,3.27 a 7.1,7.1 0 0 1 -0.23,2.51 1.9,1.9 0 0 1 -2.7,1.49 4.2,4.2 0 0 1 -2.37,-2 17.63,17.63 0 0 1 -2.25,-6 19.19,19.19 0 0 1 -0.6,-4.69 z"
       id="path5" />
    <path
       class="cls-3"
       d="m 104.95722,53.313668 a 12.4,12.4 0 0 1 -0.49,4 4.31,4.31 0 0 1 -1.17,2.06 2.14,2.14 0 0 1 -3,0.31 1,1 0 0 1 -0.26,-0.34 9.79,9.79 0 0 1 -1.360006,-3.75 52.14,52.14 0 0 1 -0.9,-9.08 10.52,10.52 0 0 1 0.37,-2.74 2,2 0 0 1 2.590006,-1.57 3.36,3.36 0 0 1 2.25,1.9 18.71,18.71 0 0 1 1.68,5.51 19.61,19.61 0 0 1 0.29,3.7 z"
       id="path6" />
    <path
       class="cls-4"
       d="m 92.117214,36.913668 c -0.09,0.45 0,1 -0.15,1.53 a 3.79,3.79 0 0 1 -1.18,1.86 3.05,3.05 0 0 1 -2,0.63 c -1.94,0.18 -3.2,-0.9 -4.2,-2.4 a 14.42,14.42 0 0 1 -2,-5.79 9.67,9.67 0 0 1 -0.1,-2.34 3.42,3.42 0 0 1 3.64,-3.15 7.46,7.46 0 0 1 1,0.1 2.88,2.88 0 0 1 1.8,1.12 15.06,15.06 0 0 1 3,6.93 8.47,8.47 0 0 1 0.19,1.51 z"
       id="path7" />
    <path
       class="cls-4"
       d="m 77.707214,76.403668 a 5.39,5.39 0 0 1 -0.18,1.38 2.25,2.25 0 0 1 -1.8,1.61 4.25,4.25 0 0 1 -4.58,-1.64 11.71,11.71 0 0 1 -3.06,-7.94 2.56,2.56 0 0 1 2.37,-2.7 3.85,3.85 0 0 1 3.77,1.35 12.78,12.78 0 0 1 3.48,7.94 z"
       id="path8" />
    <path
       class="cls-4"
       d="m 91.667214,47.593668 c -0.71,1.37 -1.94,2.28 -3,3.51 -0.09,-0.77 -0.14,-1.41 -0.26,-2 a 1.24,1.24 0 0 1 0.61,-1.35 4.79,4.79 0 0 0 1.22,-1.57 c 0.3,-0.6 0.62,-1.2 1,-1.8 a 1.86,1.86 0 0 0 0.12,-0.93 c 0,-0.3 0.09,-0.41 0.41,-0.45 0.9,-0.09 0.9,-0.12 1.06,0.73 0.36,1.93 0.75,3.85 1.15,5.77 0.45,2.25 0.5,4.55 0.79,6.81 0.2,1.58 0.3,3.15 0.45,4.72 0.08,0.83 0.1,0.83 -0.67,1.08 -0.93,0.32 -0.9,0.31 -1,-0.68 q -0.54,-4.55 -1.1,-9.07 l -0.53,-4.28 c -0.1,-0.19 -0.05,-0.35 -0.25,-0.49 z"
       id="path9" />
    <path
       class="cls-4"
       d="m 67.547214,51.683668 a 37.08,37.08 0 0 1 -2.79,3.36 c -0.12,-0.87 -0.26,-1.6 -0.32,-2.33 0,-0.38 0.29,-0.66 0.54,-0.9 a 9.5,9.5 0 0 0 2.35,-3.94 1.45,1.45 0 0 1 1.05,-1.17 c 0.4,-0.11 0.49,0 0.54,0.37 0.14,1.19 0.34,2.36 0.45,3.55 0.28,2.77 1,5.46 1.51,8.18 0.45,2.29 0.94,4.58 1.44,6.87 0.07,0.34 0,0.42 -0.32,0.43 -0.32,0.01 -0.45,0.05 -0.72,0.07 -0.7,0.07 -0.71,0.07 -0.86,-0.65 q -1.35,-6.63 -2.74,-13.25 c -0.07,-0.17 -0.07,-0.34 -0.13,-0.59 z"
       id="path10" />
    <path
       class="cls-4"
       d="m 97.107214,68.503668 a 14.37,14.37 0 0 1 -0.94,5.27 4.53,4.53 0 0 1 -1.08,1.38 3.81,3.81 0 0 1 -2.8,1.44 2.23,2.23 0 0 1 -2.56,-1.66 11.43,11.43 0 0 1 -0.53,-4.68 15.86,15.86 0 0 1 0.24,-2.16 7.71,7.71 0 0 1 1.43,-3.15 4.58,4.58 0 0 1 3.35,-1.71 1.94,1.94 0 0 1 1.68,0.84 6.33,6.33 0 0 1 1.21,4.43 z"
       id="path11" />
    <path
       class="cls-4"
       d="m 60.707214,38.723668 a 24.26,24.26 0 0 1 -0.76,6.78 5.72,5.72 0 0 1 -1,2.13 3.16,3.16 0 0 1 -1.49,1 1.55,1.55 0 0 1 -2,-0.68 6.65,6.65 0 0 1 -1,-2.86 16.28,16.28 0 0 1 0.78,-8.38 6.27,6.27 0 0 1 1.76,-2.63 3.93,3.93 0 0 1 1.61,-0.84 1,1 0 0 1 0.93,0.2 2,2 0 0 1 0.71,1.06 15,15 0 0 1 0.46,4.22 z"
       id="path12" />
    <path
       class="cls-4"
       d="m 101.60722,38.893668 a 4.37,4.37 0 0 1 -0.26,1.64 1.65,1.65 0 0 1 -1.570006,1.13 3.2,3.2 0 0 1 -2.41,-1.07 c -2.09,-2.12 -2.89,-4.89 -3.89,-7.55 a 14.94,14.94 0 0 1 -0.9,-2.92 6.2,6.2 0 0 1 -0.06,-0.62 c 0,-1.58 0.84,-2.3 2.38,-1.92 a 5.79,5.79 0 0 1 3.37,2.37 18.18,18.18 0 0 1 3.340006,8.11 c 0,0.28 0,0.53 0,0.83 z"
       id="path13" />
    <path
       class="cls-4"
       d="m 66.737214,79.193668 a 3.68,3.68 0 0 1 -2.22,-0.85 10.19,10.19 0 0 1 -2.25,-2.15 15.15,15.15 0 0 1 -2.66,-6.19 3.33,3.33 0 0 1 0.32,-2 0.94,0.94 0 0 1 0.71,-0.51 3.44,3.44 0 0 1 3.15,1 17.67,17.67 0 0 1 4.82,8.74 c 0.31,1.3 -0.32,2 -1.87,1.96 z"
       id="path14" />
    <path
       class="cls-4"
       d="m 65.937214,33.513668 a 19.52,19.52 0 0 1 -2.7,2.52 2,2 0 0 1 0.6,-2.18 9.93,9.93 0 0 0 2.23,-2.6 2.89,2.89 0 0 1 1.1,-1 c 0.25,-0.13 0.39,-0.15 0.41,0.22 0.19,3.36 0.39,6.72 0.58,10.09 0.1,1.58 0.19,3.15 0.29,4.73 0,0.31 -0.08,0.45 -0.38,0.52 -1.4,0.4 -1.37,0.42 -1.44,-1 -0.18,-3.73 -0.39,-7.45 -0.58,-11.18 z"
       id="path15" />
    <path
       class="cls-3"
       d="m 78.467214,43.593668 c -0.53,0 -0.62,-0.22 -0.63,-0.54 -0.08,-1.4 -0.22,-2.8 -0.35,-4.2 -0.17,-1.84 -0.55,-3.65 -0.84,-5.47 -0.06,-0.45 -0.11,-0.86 -0.16,-1.29 0,-0.14 0,-0.33 -0.09,-0.4 -0.09,-0.07 -0.27,0.12 -0.39,0.22 l -2.15,1.76 c -0.41,0.33 -0.45,0.31 -0.55,-0.22 -0.21,-1.21 -0.24,-1.26 0.8,-1.9 a 9.62,9.62 0 0 0 2.19,-2.36 c 0.11,-0.14 -0.07,-0.39 0.2,-0.43 a 7.46,7.46 0 0 1 1,-0.06 c 0.19,0 0.17,0.21 0.19,0.34 l 1.12,7.45 c 0.33,2.08 0.66,4.16 1,6.23 0.08,0.45 0,0.68 -0.51,0.73 a 6.11,6.11 0 0 0 -0.83,0.14 z"
       id="path16" />
    <path
       class="cls-5"
       d="m 85.797214,77.953668 v -0.08 c -0.26,0.56 -0.83,0.27 -1.23,0.45 -0.2,0.09 -0.37,0 -0.42,-0.28 -0.33,-2.22 -0.68,-4.43 -1,-6.65 -0.08,-0.54 -0.18,-1.07 -0.27,-1.6 0,-0.11 0,-0.24 -0.17,-0.25 a 0.24,0.24 0 0 0 -0.24,0.13 c -0.32,0.77 -1.12,1 -1.66,1.52 -0.2,0.2 -0.45,0.34 -0.68,0.53 -0.23,0.19 -0.41,0.17 -0.45,-0.18 a 0.4,0.4 0 0 0 0,-0.15 c -0.36,-0.84 -0.08,-1.35 0.66,-1.94 a 6.25,6.25 0 0 0 2.27,-3.15 1.19,1.19 0 0 1 1.37,-1 v 0 c 0.21,0 0.17,0.15 0.19,0.27 q 0.24,1.72 0.45,3.45 0.45,3.52 0.92,7.06 c 0.07,0.6 0.18,1.16 0.26,1.87 z"
       id="path17" />
    <path
       class="cls-6"
       d="m 43.607214,41.363668 c -0.17,-0.53 0.12,-1.06 0,-1.6 a 0.52,0.52 0 0 1 0.38,-0.54 0.67,0.67 0 0 1 0.69,0.12 c 0.09,0.07 0.06,0.33 0.23,0.22 0.17,-0.11 -0.19,-0.18 0,-0.38 0.19,0 0.34,-0.06 0.25,-0.39 a 0.73,0.73 0 0 1 0.28,-0.8 h 0.07 a 0.22,0.22 0 0 1 0.09,0.1 2.85,2.85 0 0 1 -0.18,1.08 5.23,5.23 0 0 0 -0.39,1.66 c 0.1,-0.87 0.49,-1.66 0.58,-2.52 a 0.83,0.83 0 0 1 0.17,-0.45 1.23,1.23 0 0 0 0.2,-0.81 1.08,1.08 0 0 1 0.1,-0.35 c 0.36,-0.63 0.57,-1.35 1,-2 a 1.38,1.38 0 0 0 0.47,-0.93 c 0.21,0 0.12,0.19 0.14,0.33 0.32,-0.24 0.16,-0.8 0.66,-0.82 0.1,0.22 0,0.39 -0.14,0.57 a 17.15,17.15 0 0 0 -1.24,3.81 3.53,3.53 0 0 0 -0.07,0.86 c 0,0.45 0.18,0.51 0.58,0.34 0.09,0 0.17,-0.09 0.27,0 0.26,0.12 0.41,0.29 0.28,0.6 a 2.3,2.3 0 0 0 -1.5,1.49 10.58,10.58 0 0 0 -0.78,2.7 20.43,20.43 0 0 0 -0.14,6.68 7.55,7.55 0 0 1 0.16,0.8 c 0.12,0.08 -0.27,0.29 0.08,0.32 a 1.94,1.94 0 0 0 0.9,0.49 c 0,0.14 -0.3,0.13 -0.19,0.32 0.11,0.19 0.24,0 0.34,0 0.1,0 0.51,0.08 0.61,0.37 a 0.44,0.44 0 0 1 -0.4,0 0.59,0.59 0 0 0 -0.79,0.26 0.58,0.58 0 0 0 0,0.14 c -0.05,0.13 -0.09,0.28 -0.25,0.32 -0.16,0.04 -0.18,-0.29 -0.14,-0.49 a 1,1 0 0 0 -0.31,-1.06 0.56,0.56 0 0 1 -0.17,-0.56 0.16,0.16 0 0 0 0,-0.14 c 0,0 0,0 0,0 a 0.14,0.14 0 0 1 0,0.17 c 0,0.2 -0.2,0.36 -0.15,0.61 0.05,0.25 -0.16,0.38 -0.64,0.24 0,0.19 0.36,0.06 0.28,0.32 a 0.54,0.54 0 0 1 -0.31,0.39 c -0.21,0.07 -0.17,0.24 -0.18,0.39 -0.01,0.15 0.08,0.35 -0.1,0.49 -0.18,0.14 -0.1,0.27 -0.12,0.42 a 20.58,20.58 0 0 0 -0.19,3.12 c 0,-0.08 0,-0.21 0.09,-0.32 0.09,-0.11 0.11,-0.24 0.28,-0.2 a 13.24,13.24 0 0 1 0.74,3 0.2,0.2 0 0 1 0,0.08 c 0,0.05 -0.12,0 -0.11,0.11 0.01,0.11 0.09,-0.1 0.16,-0.06 a 1.07,1.07 0 0 1 0.23,0.61 c 0.33,1.41 0.7,2.81 1.06,4.32 0,-0.27 -0.08,-0.42 0,-0.58 0.26,-0.13 0.27,0.11 0.33,0.24 0.12,0.28 0.13,0.64 0.57,0.65 0.09,0 0.14,0.12 0.15,0.22 a 2.68,2.68 0 0 1 0,1.26 c -0.34,-0.06 -0.22,-0.41 -0.4,-0.62 a 1.26,1.26 0 0 0 0.07,0.54 c 0,0.2 0.12,0.4 -0.1,0.56 h -0.06 a 5.09,5.09 0 0 1 -0.27,-1.07 c 0,-0.36 0.07,-0.59 0.52,-0.57 -0.17,-0.12 -0.28,-0.06 -0.41,-0.06 -0.53,0 -1,-0.26 -0.9,-0.92 a 1.28,1.28 0 0 0 -0.3,-1.14 1,1 0 0 0 -0.5,1.11 c 0.05,0.41 -0.21,-0.09 -0.29,0.06 -0.3,-0.36 -0.12,-0.81 -0.23,-1.2 0.14,-0.19 0.27,-0.39 0.5,-0.12 0,0.07 0.09,0.1 0.14,0 0.05,-0.1 0.09,-0.12 0,-0.16 -0.09,-0.04 -0.14,-0.24 -0.25,-0.32 -0.05,0.42 -0.25,0.29 -0.45,0.14 -0.31,-0.8 -0.37,-1.66 -0.63,-2.47 -0.26,-0.81 -0.31,-1.39 -0.48,-2.08 a 3.26,3.26 0 0 0 -0.09,-0.53 c -0.09,-0.28 0,-0.6 -0.15,-0.9 a 3.09,3.09 0 0 0 -0.12,-0.73 c -0.14,-0.66 -0.45,-1.28 -0.61,-1.93 -0.06,-0.17 -0.3,0.06 -0.36,-0.24 0.35,0.1 0.74,0 0.8,0.51 0,0.21 0.15,0.2 0.3,0.2 0.15,0 0.29,-0.17 0.29,0.06 0,0.23 -0.16,0.23 -0.34,0.16 h -0.2 a 0.58,0.58 0 0 0 0.74,0.16 c 0.31,-0.08 0.17,-0.23 0.05,-0.4 -0.12,-0.17 0.08,-0.2 0.2,-0.59 0.05,-0.15 0.27,-0.56 -0.12,-0.75 -0.06,0 -0.07,-0.13 -0.1,-0.2 a 2,2 0 0 0 0.61,-1.3 17.5,17.5 0 0 0 0.31,-2.4 0.46,0.46 0 0 1 0.12,-0.39 c 0.55,0.45 0.57,0.59 0.26,1.41 a 1.06,1.06 0 0 0 -0.16,-1.48 l -0.09,-0.06 a 13.6,13.6 0 0 1 0.1,-2.85 c 0.06,-1.19 0.18,-2.37 0.14,-3.57 a 1,1 0 0 0 0,-0.24 0.23,0.23 0 0 0 -0.16,-0.22 c -0.1,0 -0.2,0.06 -0.26,0.16 a 5.2,5.2 0 0 0 -0.56,1.25 9.75,9.75 0 0 0 -0.49,1.51 0.86,0.86 0 0 1 -0.2,0.48 0.26,0.26 0 0 1 -0.23,0 c -0.24,-0.15 -0.18,-0.37 -0.16,-0.59 a 1.11,1.11 0 0 0 -0.07,-0.78 0.37,0.37 0 0 1 -0.11,-0.19 c 0.08,-0.45 0.45,-0.75 0.56,-1.19 0.27,-0.84 0.59,-1.67 0.87,-2.55 -0.13,0.33 -0.21,0.63 -0.32,0.92 -0.11,0.29 -0.1,0.34 -0.34,0.36 z"
       id="path18" />
    <path
       class="cls-4"
       d="m 74.987214,19.893668 a 3.33,3.33 0 0 1 3.7,2.81 4.28,4.28 0 0 1 -0.08,3.15 3.35,3.35 0 0 1 -2.08,1.8 4.65,4.65 0 0 1 -2.69,0 3.34,3.34 0 0 1 -2.52,-3.34 6,6 0 0 1 0.16,-2.19 3,3 0 0 1 1.84,-2 3.37,3.37 0 0 1 1.67,-0.23 z"
       id="path19" />
    <path
       class="cls-7"
       d="m 46.437214,67.883668 c 0.42,-0.1 0.2,-0.57 0.45,-0.77 v 0 c 0.15,0.16 0.1,0.36 0.11,0.54 a 1.7,1.7 0 0 0 0.34,1 c 0.38,-0.38 0.53,-0.36 0.69,0.12 a 13.39,13.39 0 0 0 0.82,1.6 11.08,11.08 0 0 0 1.21,2.22 16.62,16.62 0 0 0 0.88,1.46 4.12,4.12 0 0 1 0.57,0.75 c -0.1,-0.33 -0.39,-0.52 -0.58,-0.79 a 7.65,7.65 0 0 0 -0.94,-1.64 c -0.39,-0.68 -0.74,-1.4 -1.17,-2.07 a 24.38,24.38 0 0 1 -1.07,-2.46 c -0.08,-0.38 -0.48,-0.64 -0.45,-1.08 0.24,-0.23 0.51,0.07 0.78,0 0.27,-0.07 0.12,0.3 0.09,0.45 a 1.72,1.72 0 0 0 0.06,0.9 c 0.14,0.38 0.3,0.45 0.71,0.33 a 3.9,3.9 0 0 1 -0.08,-2.06 c 0,-0.11 0.07,-0.19 0,-0.29 -0.3,-0.26 0,-0.28 0.15,-0.33 0.83,0.17 1.14,-0.05 1.2,-0.9 a 5.87,5.87 0 0 0 -0.19,-1.27 c -0.11,-0.59 -0.24,-1.18 -0.35,-1.77 a 0.78,0.78 0 0 1 0,-0.65 c 0.08,0 0.19,-0.3 0.23,0 a 5,5 0 0 1 0.12,1.09 0.31,0.31 0 0 0 0,0.18 8.76,8.76 0 0 1 0.3,2.79 v 0.19 a 1,1 0 0 0 -0.09,1.31 c -0.21,0.06 -0.33,-0.1 -0.48,-0.18 -0.36,-0.19 -0.55,-0.11 -0.67,0.29 a 1.42,1.42 0 0 0 0,0.58 11.6,11.6 0 0 0 1.3,3.6 18,18 0 0 0 2.87,4.22 5.25,5.25 0 0 0 1.11,1 c 0.38,0.32 0.9,0.27 1.35,0.4 a 0.6,0.6 0 0 0 -0.27,0.5 0.22,0.22 0 0 1 -0.17,0 c -0.17,0 -0.37,-0.18 -0.49,0 -0.12,0.18 0.05,0.39 0.15,0.56 a 12.32,12.32 0 0 0 1.68,1.95 c 0.15,0.15 0.38,0.26 0.35,0.53 -0.16,0.45 -0.28,0.51 -0.59,0.22 0,-0.14 -0.13,-0.2 -0.22,-0.27 -0.09,-0.07 -0.22,-0.13 -0.26,-0.26 a 1,1 0 0 0 -0.67,-0.24 c -0.21,0 -0.35,-0.23 -0.28,-0.5 0.07,-0.05 0.14,0 0.23,0 a 4,4 0 0 1 -1,-1.1 c -0.42,-0.32 -0.7,-0.79 -1.09,-1.15 a 3.84,3.84 0 0 1 -0.9,-1.24 c 0,0.15 0.12,0.28 0,0.42 -0.25,0 -0.27,0.11 -0.26,0.31 0.01,0.2 0.08,0.32 -0.14,0.34 -0.22,0.02 -0.45,0.06 -0.53,-0.19 -0.08,-0.25 -0.25,-0.63 -0.66,-0.63 0,0 -0.1,-0.09 -0.11,-0.14 -0.01,-0.05 0.2,-0.1 0.26,-0.2 0.35,0 0.45,0.35 0.72,0.45 -0.53,-0.65 -1.11,-1.26 -1.67,-1.88 -0.19,-0.2 0,0.12 -0.1,0.08 -0.1,-0.04 -0.45,-0.37 -0.5,0.12 0,0.06 -0.11,0 -0.16,0 a 0.24,0.24 0 0 1 -0.1,-0.29 1.14,1.14 0 0 0 0,-0.73 c 0.24,-0.19 0.12,-0.39 0,-0.58 a 4.91,4.91 0 0 1 -0.39,-0.54 1.39,1.39 0 0 0 -0.35,-0.79 4.86,4.86 0 0 1 -0.64,-1 c -0.09,-0.23 -0.16,-0.48 -0.26,-0.7 -0.2,-0.41 -0.45,-0.8 -0.67,-1.2 -0.1,-0.16 -0.31,-0.35 -0.18,-0.61 z"
       id="path20" />
    <path
       class="cls-6"
       d="m 114.43722,45.593668 c 0.13,0.41 -0.15,0.65 -0.38,0.9 a 0.74,0.74 0 0 0 -0.19,0.93 0.57,0.57 0 0 1 0.08,0.36 c -0.22,0.62 0.06,1.23 0,1.84 -0.06,1 0.08,1.91 0,2.86 0,0.69 -0.15,1.35 -0.19,2 a 0.32,0.32 0 0 0 0.13,0.32 c 0.16,0.11 0,0.29 -0.07,0.35 -0.07,0.06 -0.19,0 -0.21,-0.16 -0.02,-0.16 -0.13,-0.24 -0.31,-0.16 -0.11,-0.19 0,-0.37 0.06,-0.54 a 5.8,5.8 0 0 0 0.29,-1.8 34.08,34.08 0 0 0 -0.37,-6.22 15.72,15.72 0 0 0 -0.43,-1.67 c 0,-0.16 -0.15,-0.33 0,-0.49 0.15,-0.16 0,-0.23 0.18,-0.25 -0.07,0.17 0.18,0.18 0.15,0.37 a 1.4,1.4 0 0 0 0.16,0.85 c 0.19,0.32 0.31,0.22 0.48,0 a 0.71,0.71 0 0 0 0.17,-0.53 13.75,13.75 0 0 1 0.09,-2.22 c 0,-0.18 0.06,-0.35 -0.29,-0.25 -0.55,0.16 -0.58,0.09 -0.56,-0.71 0.5,0 0.68,-0.12 0.71,-0.64 a 5.69,5.69 0 0 0 -0.33,-2.14 c -0.14,-0.45 -0.33,-0.9 -0.49,-1.35 a 24,24 0 0 0 -1.19,-2.93 c -0.07,-0.14 -0.16,-0.29 -0.07,-0.45 0.21,0.16 0.4,-0.08 0.61,0 0.17,0.45 0.24,0.9 0.67,1.18 a 7.59,7.59 0 0 1 0.76,1.4 c 0.08,0.11 0.25,0.19 0.16,0.35 a 0.66,0.66 0 0 1 -0.61,0.28 c 0.34,0 0.07,0.53 0.45,0.52 v 0 c 0.12,0.19 0.3,0 0.45,0.06 0.15,0.06 0.4,-0.05 0.45,0.19 0.05,0.24 -0.25,0 -0.23,0.15 a 0.19,0.19 0 0 0 -0.06,0.25 c 0.37,1 0.73,2.08 1.12,3.15 -0.06,-0.32 -0.33,-0.57 -0.18,-0.9 0.27,0.12 0.29,0.45 0.54,0.61 v -0.38 a 3.75,3.75 0 0 1 0.25,2.55 0.09,0.09 0 0 1 -0.12,0 c -0.17,-0.2 -0.16,-0.51 -0.45,-0.75 -0.08,0.78 0.29,1.47 0.09,2.18 a 2.57,2.57 0 0 0 0,-1.17 c 0,-0.35 0.09,-0.38 0.33,-0.18 0.09,0.05 0,0.25 0.18,0.22 0.06,0.21 0.23,0.41 0.06,0.64 -0.17,0.23 0,0.18 0.08,0.14 0.35,-0.09 0.17,0.18 0.21,0.3 -0.17,0.15 0,0.28 0,0.45 a 31.36,31.36 0 0 1 0.42,3.87 3.44,3.44 0 0 0 0.05,0.45 c 0,0.49 0.1,1 0,1.47 0,0.2 0,0.45 -0.31,0.45 -0.31,0 -0.28,-0.27 -0.29,-0.5 a 32.91,32.91 0 0 0 -0.47,-4 3.27,3.27 0 0 0 -0.08,-0.7 7.17,7.17 0 0 1 -0.1,-0.81 c 0.06,0.29 0,0.6 0.11,0.9 a 5.69,5.69 0 0 1 0.09,0.74 c 0,0.13 0,0.25 0,0.38 0,0.13 0.06,0.34 0.1,0.52 0.09,1 0.26,2 0.3,3.06 a 6.43,6.43 0 0 0 0.27,1.23 c 0.15,-0.3 0,-0.65 0.36,-0.8 0.29,0.18 0,0.4 0,0.61 a 4.92,4.92 0 0 1 0,0.94 c -0.54,-0.48 -0.81,-0.34 -1,0.4 -0.12,0.07 -0.17,-0.42 -0.34,0 a 0.31,0.31 0 0 1 -0.3,0.21 c 0,-0.71 0.07,-1.42 0.07,-2.14 a 31.58,31.58 0 0 0 -1.09,-8.79 c -0.14,1 -0.09,2 -0.17,3 0,0 0,0.07 0,0.11 0,0.04 0.08,-0.11 0.2,-0.11 z"
       id="path21" />
    <path
       class="cls-8"
       d="m 105.80722,70.693668 c -0.55,-0.22 -0.53,-0.73 -0.55,-1.17 a 19.21,19.21 0 0 1 0.38,-4.28 35.43,35.43 0 0 1 1,-4.65 5,5 0 0 1 1.48,-2.31 c 0.55,-0.5 0.94,-0.45 1.4,0.12 a 1.68,1.68 0 0 1 0.45,1 15.17,15.17 0 0 1 -2.16,9.77 1.24,1.24 0 0 1 -0.18,0.22 c -0.36,0.25 -0.54,0.67 -0.86,1 v 0 a 0.34,0.34 0 0 0 -0.31,0.15 l -0.11,0.1 a 1.24,1.24 0 0 1 -0.54,0.05 z"
       id="path22" />
    <path
       class="cls-3"
       d="m 61.547214,23.983668 a 1.17,1.17 0 0 1 0.63,1.41 13.63,13.63 0 0 1 -2.19,6 4.23,4.23 0 0 1 -2.77,1.8 0.91,0.91 0 0 1 -1.12,-0.6 0.5,0.5 0 0 1 0,-0.12 4.53,4.53 0 0 1 0.11,-2.88 10.54,10.54 0 0 1 0.9,-2.36 6.87,6.87 0 0 1 1.91,-2.25 l 1,-0.64 c 0.11,-0.22 0.34,-0.28 0.54,-0.38 a 2.87,2.87 0 0 1 0.99,0.02 z"
       id="path23" />
    <path
       class="cls-4"
       d="m 49.747214,61.083668 q 0.27,1.55 0.54,3.06 a 2.72,2.72 0 0 1 0,0.9 c -0.16,0.93 -0.56,1.14 -1.4,0.72 -0.35,-0.09 -0.49,-0.39 -0.65,-0.66 a 14,14 0 0 1 -2.09,-5.51 28.38,28.38 0 0 1 -0.54,-4.21 14.84,14.84 0 0 1 0.15,-1.48 0.59,0.59 0 0 1 0.19,-0.47 c 0,0 0.06,-0.08 0.08,-0.12 0.31,-0.87 0.31,-0.87 1.2,-0.68 h 0.23 a 43.17,43.17 0 0 1 2.22,8.18 0.92,0.92 0 0 0 0.07,0.27 z"
       id="path24" />
    <path
       class="cls-4"
       d="m 51.177214,55.413668 a 0.68,0.68 0 0 0 -0.33,0.6 c 0,0.39 -0.39,0.53 -0.45,0.86 0,0.07 -0.09,0.09 -0.16,0.08 -0.07,-0.01 -0.09,-0.06 -0.09,-0.13 0,-0.69 0,-1.35 -0.07,-2.06 a 0.28,0.28 0 0 1 0,-0.13 6.26,6.26 0 0 0 1.12,-3 1.56,1.56 0 0 1 0.1,-0.37 0.57,0.57 0 0 1 0.54,-0.41 c 0.22,0 0.15,0.31 0.17,0.48 0.2,1.55 0.39,3.1 0.55,4.66 a 47.68,47.68 0 0 0 1.35,5.79 c 0.33,1.41 0.71,2.81 1.09,4.21 0.1,0.37 0,0.41 -0.36,0.39 a 0.67,0.67 0 0 1 -0.71,-0.61 c -0.84,-3.4 -1.71,-6.8 -2.58,-10.2 -0.02,-0.12 -0.01,-0.29 -0.17,-0.16 z"
       id="path25" />
    <path
       class="cls-4"
       d="m 95.867214,25.823668 c 0,0.9 -0.54,1.35 -1.48,1.22 a 5.85,5.85 0 0 1 -3.23,-1.45 16,16 0 0 1 -3.2,-4 3.65,3.65 0 0 1 -0.41,-1.16 0.82,0.82 0 0 1 0.61,-1 v 0 a 2.58,2.58 0 0 1 1.35,0 8,8 0 0 1 3,1.3 10.87,10.87 0 0 1 3.21,4.29 1.69,1.69 0 0 1 0.15,0.8 z"
       id="path26" />
    <path
       class="cls-4"
       d="m 100.91722,73.063668 a 47.14,47.14 0 0 0 1.16,-8.93 l -2.370006,2.55 a 2.08,2.08 0 0 1 0.17,-1.49 2.75,2.75 0 0 1 0.490006,-0.82 10.05,10.05 0 0 0 1.76,-2.78 2.78,2.78 0 0 1 0.93,-1.31 c 0.1,-0.08 0.24,-0.2 0.38,-0.11 0.14,0.09 0,0.23 0,0.36 -0.18,2.43 -0.31,4.87 -0.56,7.29 -0.12,1.26 -0.45,2.51 -0.69,3.75 -0.08,0.41 -0.16,0.81 -0.25,1.22 a 2.94,2.94 0 0 1 -0.71,0.5 c -0.13,0.01 -0.36,0.12 -0.31,-0.23 z"
       id="path27" />
    <path
       class="cls-4"
       d="m 106.21722,47.793668 a 9.65,9.65 0 0 1 -0.3,-1.69 0.82,0.82 0 0 1 0.16,-0.54 5.85,5.85 0 0 0 1,-3.51 c 0,-0.18 0,-0.23 0.21,-0.23 0.21,0 0.39,-0.06 0.45,0.26 0.22,1 0.49,2.07 0.72,3.12 a 44.89,44.89 0 0 1 0.87,7.49 c 0.06,1.17 0.17,2.33 0.12,3.49 a 1.24,1.24 0 0 1 -0.1,0.66 0.49,0.49 0 0 1 -0.39,0.24 c -0.21,0 -0.13,-0.23 -0.14,-0.34 -0.22,-2.17 -0.43,-4.35 -0.64,-6.52 l -0.39,-4.24 c 0,-0.13 0,-0.31 -0.19,-0.33 -0.19,-0.02 -0.18,0.14 -0.22,0.25 a 3.9,3.9 0 0 1 -1.16,1.89 z"
       id="path28" />
    <path
       class="cls-8"
       d="m 112.92722,44.123668 a 25.05,25.05 0 0 1 0.93,8.74 5.29,5.29 0 0 1 -0.48,2 c -0.25,0.26 -0.42,0.69 -0.9,0.62 -0.48,-0.07 -0.64,-0.55 -0.76,-1 a 23.32,23.32 0 0 1 -0.73,-4.14 c -0.24,-2 -0.42,-4 -0.55,-6 a 4.25,4.25 0 0 1 0.17,-1.94 c 0.32,-0.76 0.85,-0.84 1.35,-0.2 a 9.56,9.56 0 0 1 0.97,1.92 z"
       id="path29" />
    <path
       class="cls-3"
       d="m 86.447214,83.733668 a 3.21,3.21 0 0 0 0.31,-2.23 1.89,1.89 0 0 0 -2,-1.74 c -1.28,0 -2.13,0.63 -2.18,1.74 a 2.78,2.78 0 0 0 1,2.7 2.78,2.78 0 0 1 -1.17,0.23 0.58,0.58 0 0 1 -0.54,-0.35 4.6,4.6 0 0 1 -0.62,-3.12 1.72,1.72 0 0 1 0.25,-0.53 3.9,3.9 0 0 1 3,-1.54 3.32,3.32 0 0 1 1.74,0.07 2.81,2.81 0 0 1 1.73,3.43 2.42,2.42 0 0 1 -0.1,0.36 c -0.26,0.91 -0.36,1.01 -1.42,0.98 z"
       id="path30" />
    <path
       class="cls-5"
       d="m 90.487214,83.093668 c -0.66,0.13 -0.66,0.13 -0.76,-0.53 a 5,5 0 0 0 -0.11,-0.66 c -0.53,-1.89 0.34,-3.22 1.8,-4.25 a 4.78,4.78 0 0 1 2.79,-1 1.34,1.34 0 0 1 1.53,1.35 4.62,4.62 0 0 1 -2.55,4.63 2.55,2.55 0 0 1 -1.16,0.21 c -0.15,0 -0.3,0.12 -0.41,-0.06 0.08,-0.21 0.28,-0.26 0.45,-0.33 a 5.55,5.55 0 0 1 0.72,-0.25 1.84,1.84 0 0 0 1.35,-1.7 c 0.12,-0.62 0.17,-1.26 0.27,-1.89 a 0.52,0.52 0 0 0 -0.34,-0.63 1.57,1.57 0 0 0 -2,0.31 2.79,2.79 0 0 0 -1.17,2.14 22.57,22.57 0 0 0 -0.11,2.47 c 0.03,0.21 -0.18,0.13 -0.3,0.19 z"
       id="path31" />
    <path
       class="cls-8"
       d="m 46.697214,51.963668 c -0.48,0.17 -0.73,-0.11 -1,-0.45 a 0.18,0.18 0 0 1 -0.09,-0.19 18.72,18.72 0 0 1 0.53,-9.73 4.14,4.14 0 0 1 1.11,-1.92 c 0.22,-0.2 0.45,-0.45 0.79,-0.23 a 2.57,2.57 0 0 1 0.28,1.15 49.28,49.28 0 0 1 -0.76,9.7 2.72,2.72 0 0 1 -0.86,1.67 z"
       id="path32" />
    <path
       class="cls-9"
       d="m 71.317214,86.273668 a 1,1 0 0 1 -1.1,-0.47 c -0.13,-0.27 0.07,-0.37 0.25,-0.49 a 0.53,0.53 0 0 1 0.33,0 1.38,1.38 0 0 0 0.45,0.08 h -0.15 a 0.68,0.68 0 0 1 -0.42,-0.19 0.53,0.53 0 0 0 -0.17,-0.08 6.77,6.77 0 0 1 -3.73,-2.25 6.17,6.17 0 0 1 -1.31,-2 c -0.28,-0.72 0.24,-1.35 1.08,-1.31 a 6.58,6.58 0 0 1 2.7,0.75 7.51,7.51 0 0 1 3.21,3.15 c 0.22,0.39 0.42,0.79 0.67,1.17 0.25,0.38 0.06,0.45 -0.24,0.53 a 2.24,2.24 0 0 0 -0.74,0.29 l 1.32,0.4 c -0.07,0.28 -0.3,0.08 -0.45,0.14 a 3.31,3.31 0 0 1 -1.09,-0.09 c -0.32,-0.11 -0.61,-0.04 -0.61,0.37 z"
       id="path33" />
    <path
       class="cls-8"
       d="m 51.067214,39.643668 -1.35,2.09 a 2,2 0 0 1 0.09,-1.28 4.36,4.36 0 0 1 0.66,-1.17 10.45,10.45 0 0 0 1.16,-2 2,2 0 0 1 1,-1.19 c -0.17,1.14 -0.35,2.25 -0.49,3.34 a 43.14,43.14 0 0 0 -0.32,7.45 c 0,0.94 0,1.89 0,2.83 0,0.29 -0.72,0.67 -1,0.51 -0.28,-0.16 -0.09,-0.22 -0.09,-0.35 q 0.14,-3.95 0.26,-7.89 c 0.1,-0.78 0.08,-1.52 0.08,-2.34 z"
       id="path34" />
    <path
       class="cls-5"
       d="m 111.60722,40.953668 c -0.29,0.25 -0.66,0.19 -1,0.28 a 0.26,0.26 0 0 1 -0.29,-0.12 9.42,9.42 0 0 1 -0.9,-1.18 66,66 0 0 1 -3.68,-8.66 5.27,5.27 0 0 1 -0.23,-1 0.59,0.59 0 0 1 0.17,-0.65 c 0.23,-0.16 0.45,0 0.62,0.1 a 7,7 0 0 1 1.66,1.51 l 0.28,0.31 a 4.33,4.33 0 0 1 1.17,1.67 c 0.41,1 0.94,1.93 1.32,2.92 a 13.09,13.09 0 0 1 0.9,3.75 v 0 a 1.93,1.93 0 0 1 -0.02,1.07 z"
       id="path35" />
    <path
       class="cls-8"
       d="m 53.287214,75.273668 a 18.82,18.82 0 0 1 -3.41,-5.31 8.68,8.68 0 0 1 -0.82,-2.62 0.14,0.14 0 0 1 0,-0.09 c 0,-0.35 -0.05,-0.75 0.29,-1 0.34,-0.25 0.58,0.11 0.84,0.29 l 0.15,0.11 a 41.72,41.72 0 0 1 4.86,8 5,5 0 0 1 0.6,1.91 1.56,1.56 0 0 1 -1.42,-0.34 c 0,-0.15 -0.56,-0.31 0,-0.47 h 0.12 c 0.09,0 0.2,0 0.12,-0.13 -0.56,-1 -1,-2.12 -1.57,-3.15 -0.61,-1.21 -1.22,-2.42 -1.8,-3.64 a 2.11,2.11 0 0 0 -0.9,-0.9 c -0.11,-0.06 -0.22,-0.17 -0.35,-0.06 -0.13,0.11 -0.07,0.24 0,0.36 a 8.86,8.86 0 0 0 0.61,1.95 24.82,24.82 0 0 0 2.64,4.41 0.8,0.8 0 0 1 0.25,0.51 c -0.04,0.11 -0.07,0.22 -0.21,0.17 z"
       id="path36" />
    <path
       class="cls-8"
       d="m 102.68722,31.023668 a 7.78,7.78 0 0 1 -0.9,1.09 c -0.18,0.18 -0.29,0.22 -0.38,-0.07 a 0.2,0.2 0 0 0 0,-0.08 1.47,1.47 0 0 1 0.1,-2.07 v 0 a 1,1 0 0 0 0.24,-0.9 c 0,-0.12 -0.13,-0.34 0.11,-0.39 a 0.4,0.4 0 0 1 0.51,0.23 65.11,65.11 0 0 1 4.24,9.54 c 0.24,0.78 0.52,1.54 0.72,2.33 0.1,0.39 -0.07,0.41 -0.36,0.35 -0.45,-0.09 -0.62,-0.45 -0.74,-0.85 -0.33,-1.13 -0.65,-2.25 -1,-3.38 -0.65,-1.85 -1.44,-3.64 -2.25,-5.42 a 3.29,3.29 0 0 0 -0.29,-0.38 z"
       id="path37" />
    <path
       class="cls-8"
       d="m 61.047214,78.233668 a 1.94,1.94 0 0 1 -1.44,-0.88 34.77,34.77 0 0 1 -2.25,-3.82 23.24,23.24 0 0 1 -1.45,-3.07 3.59,3.59 0 0 0 -0.17,-0.34 2.09,2.09 0 0 0 -0.49,0.72 c -0.32,0.53 -0.49,0.54 -0.83,0 -0.08,-0.13 -0.15,-0.28 -0.23,-0.41 a 0.48,0.48 0 0 1 0.06,-0.67 h 0.06 a 0.94,0.94 0 0 0 0.33,-0.71 c 0,-0.57 0.13,-1.14 0.2,-1.71 0,-0.14 0,-0.3 0.2,-0.32 a 0.46,0.46 0 0 1 0.45,0.15 0.89,0.89 0 0 1 0.08,0.17 46,46 0 0 0 5.26,10.58 3.9,3.9 0 0 1 0.22,0.31 z"
       id="path38" />
    <path
       class="cls-5"
       d="m 86.357214,26.593668 c -0.52,0.16 -0.76,-0.16 -1,-0.7 -0.71,-1.7 -1.49,-3.38 -2.22,-5.08 -0.13,-0.31 -0.26,-0.35 -0.55,-0.19 -0.49,0.27 -1,0.5 -1.51,0.73 -0.12,0.05 -0.32,0.29 -0.41,0 -0.09,-0.29 -0.37,-0.54 0,-0.76 l 2.52,-1.35 c 0.32,-0.17 0.39,0.06 0.49,0.26 l 1.35,2.65 2,3.93 c 0.27,0.54 0.27,0.54 -0.33,0.54 z"
       id="path39" />
    <path
       class="cls-4"
       d="m 64.807214,23.803668 3.23,-2.58 v 1.46 c -0.12,2.06 -0.25,4.13 -0.35,6.2 a 0.51,0.51 0 0 1 -0.49,0.6 c -1,0.21 -1,0.24 -0.9,-0.8 0.15,-1.84 0.26,-3.68 0.4,-5.6 l -1.77,0.84 c -0.11,0.03 -0.13,-0.02 -0.12,-0.12 z"
       id="path40" />
    <path
       class="cls-4"
       d="m 78.157214,85.153668 c -0.25,0 -0.29,-0.16 -0.37,-0.3 -0.53,-1 -1.06,-1.93 -1.56,-2.91 -0.15,-0.27 -0.28,-0.32 -0.55,-0.18 -0.45,0.24 -0.9,0.45 -1.35,0.65 -0.15,0.07 -0.35,0.25 -0.45,-0.07 -0.1,-0.32 -0.42,-0.45 0,-0.73 0.42,-0.28 1,-0.68 1.44,-1 a 0.66,0.66 0 0 0 0.31,-0.45 c 0.1,-0.4 0.56,-0.33 0.86,-0.45 0.3,-0.12 0.23,0.2 0.29,0.33 q 1,2.2 2,4.43 c 0.26,0.58 0.26,0.58 -0.37,0.67 z"
       id="path41" />
    <path
       class="cls-10"
       d="m 102.28722,78.403668 a 1.9,1.9 0 0 1 0.21,-1.38 17.19,17.19 0 0 1 3.3,-5.63 3.28,3.28 0 0 1 0.9,-0.76 c 0.45,-0.21 0.73,-0.09 0.87,0.4 a 2.23,2.23 0 0 1 0,1.09 8.59,8.59 0 0 1 -2,3.52 0.14,0.14 0 0 1 -0.15,-0.12 0.78,0.78 0 0 1 0.19,-0.52 11.11,11.11 0 0 0 1.1,-2.7 c 0,-0.17 0.15,-0.36 0,-0.49 -0.15,-0.13 -0.33,0 -0.45,0.14 a 5,5 0 0 0 -1.4,1.64 13.79,13.79 0 0 0 -1.25,2.77 1.27,1.27 0 0 1 -0.23,0.41 c -0.32,0.43 -0.26,0.56 0.3,0.66 0.28,0.06 0.28,0.26 0.28,0.48 a 0.17,0.17 0 0 1 -0.14,0.13 c -0.15,-0.08 -0.29,-0.13 -0.42,0 a 2.14,2.14 0 0 1 -0.69,0.22 l -0.17,0.1 a 0.16,0.16 0 0 1 -0.22,0 c 0,0 -0.02,0.05 -0.03,0.04 z"
       id="path42" />
    <path
       class="cls-6"
       d="m 49.867214,31.133668 c -0.26,-0.25 0,-0.52 0,-0.78 0.22,0.09 0.37,-0.22 0.6,-0.12 0.09,0.26 -0.11,0.39 -0.22,0.56 -0.11,0.17 -0.06,0.08 0,0.05 a 0.17,0.17 0 0 1 0.1,0 c 0.3,0.05 0.29,0.27 0.23,0.47 a 28.78,28.78 0 0 1 -2.19,5.89 2.21,2.21 0 0 1 -0.51,0.63 c -0.14,0.13 -0.3,0.27 -0.5,0.17 -0.2,-0.1 -0.18,-0.29 -0.18,-0.45 a 4.92,4.92 0 0 1 0.32,-1.74 15.88,15.88 0 0 1 1.56,-3.53 c 0.08,-0.12 0.14,-0.24 0.23,-0.35 a 1.12,1.12 0 0 1 0.3,-0.34 v -0.06 c 0.05,-0.18 0.3,-0.21 0.26,-0.4 z"
       id="path43" />
    <path
       class="cls-11"
       d="m 49.207214,32.253668 a 18.57,18.57 0 0 0 -1.77,4.5 4.27,4.27 0 0 0 -0.1,0.8 c 0,0.14 0,0.32 0.11,0.38 0.11,0.06 0.26,-0.08 0.36,-0.18 a 3.06,3.06 0 0 0 0.75,-1 35.26,35.26 0 0 0 1.92,-5.45 c 0.05,-0.19 0.16,-0.45 -0.23,-0.4 -0.1,0 -0.13,0 -0.1,-0.11 l 0.32,-0.56 0.13,-0.12 c 0.08,0 0.14,-0.1 0.23,-0.09 0.34,-0.1 0.45,0 0.39,0.36 a 23.88,23.88 0 0 1 -1,3.22 c -0.41,1.18 -0.9,2.34 -1.4,3.49 a 7.52,7.52 0 0 1 -1.09,1.8 l -0.12,0.07 c -0.2,0.11 -0.38,0.39 -0.61,0.24 a 0.74,0.74 0 0 1 -0.26,-0.76 14.42,14.42 0 0 1 1,-3.94 13.18,13.18 0 0 1 0.55,-1.21 12.76,12.76 0 0 1 0.75,-1.16 c 0.16,0 0.21,0.02 0.17,0.12 z"
       id="path44" />
    <path
       class="cls-8"
       d="m 72.477214,19.863668 -0.12,-0.06 c -0.8,-0.23 -1.16,-0.66 -1.11,-1.28 a 1.84,1.84 0 0 1 1.43,-1.6 0.68,0.68 0 0 1 0.58,0.13 c 0,0 0,0.06 -0.06,0.07 -1,0.49 -1,0.48 -0.63,1.59 a 1,1 0 0 0 1.12,0.66 c 0.38,-0.06 0.75,-0.14 1.13,-0.18 a 1.08,1.08 0 0 0 1,-0.78 1.21,1.21 0 0 0 -0.27,-1.28 l -0.21,-0.23 c 0.49,-0.08 0.93,-0.21 1.32,0.12 a 1.6,1.6 0 0 1 0.33,1.41 0.77,0.77 0 0 1 -0.5,0.48 4.65,4.65 0 0 1 -1.32,0.7 4.12,4.12 0 0 1 -2.69,0.25 z"
       id="path45" />
    <path
       class="cls-12"
       d="m 113.18722,37.223668 a 12.22,12.22 0 0 1 0.94,2.95 1.53,1.53 0 0 1 -0.17,1.2 c -0.19,0.25 -0.41,0.45 -0.65,0 a 2.29,2.29 0 0 0 -0.31,-0.74 5.28,5.28 0 0 1 -0.75,-1.74 0.06,0.06 0 0 0 0,-0.08 4.41,4.41 0 0 1 -0.53,-1 c -0.82,-2 -1.68,-3.89 -2.48,-5.85 a 1.63,1.63 0 0 1 -0.15,-0.4 c 0,-0.3 0.1,-0.49 0.39,-0.43 0.29,0.06 0.54,0.09 0.66,0.39 a 9.37,9.37 0 0 1 1.28,1.67 c 0,0.15 -0.06,0.17 -0.16,0.19 -0.1,0.02 -0.34,-0.22 -0.45,-0.38 a 2.59,2.59 0 0 0 -0.72,-0.68 c 1.12,2.67 2.22,5.26 3.35,7.88 0.17,-0.14 0.11,-0.27 0.09,-0.39 a 15.54,15.54 0 0 0 -0.48,-1.9 1.18,1.18 0 0 1 -0.14,-0.55 c 0.06,-0.07 0.12,-0.16 0.28,-0.14 z"
       id="path46" />
    <path
       class="cls-8"
       d="m 98.157214,77.083668 c 0.71,-0.77 1.44,-1.54 2.150006,-2.32 0.16,-0.17 0.29,-0.36 0.45,-0.54 a 3.2,3.2 0 0 1 0.76,-0.88 c 0.07,-0.07 0.18,-0.16 0.29,-0.08 a 0.25,0.25 0 0 1 0,0.36 c -0.13,0.45 -0.27,0.88 -0.4,1.32 a 28.6,28.6 0 0 1 -1.800006,4.73 0.86,0.86 0 0 0 0,0.27 c -0.24,0.49 -0.54,0.68 -1,0.58 a 22.19,22.19 0 0 1 0.86,-2.08 12,12 0 0 0 0.660006,-2 c 0.07,-0.29 -0.160006,-0.19 -0.300006,-0.11 l -1.49,0.9 c -0.16,0.01 -0.2,-0.06 -0.18,-0.15 z"
       id="path47" />
    <path
       class="cls-13"
       d="m 67.777214,85.593668 -2.12,-0.72 a 0.62,0.62 0 0 1 0.05,-0.11 c 0.16,-0.06 0.41,0 0.45,-0.17 0.04,-0.17 -0.22,-0.26 -0.36,-0.31 a 3.19,3.19 0 0 1 -1.19,-0.93 29.45,29.45 0 0 1 -2.64,-2.94 c 0,-0.09 -0.13,0 -0.21,0 a 2.69,2.69 0 0 0 -0.45,0.16 c -0.41,0.25 -0.64,0.08 -0.9,-0.25 -0.26,-0.33 0,-0.52 0.17,-0.74 a 1.14,1.14 0 0 0 0.24,-0.55 c 0.07,-0.47 0.32,-0.55 0.68,-0.23 a 2.17,2.17 0 0 1 0.32,0.36 c 1,1.5 2.28,2.83 3.46,4.22 a 13.43,13.43 0 0 0 1.86,1.48 l 0.87,0.67 c -0.03,0.17 -0.13,0.13 -0.23,0.06 z"
       id="path48" />
    <path
       class="cls-14"
       d="m 101.69722,27.593668 c 0,0.12 0.17,0.24 0.06,0.34 -0.11,0.1 -0.27,0 -0.4,0 a 2.47,2.47 0 0 1 -1,-1.07 55.73,55.73 0 0 0 -3.350006,-4.71 0.33,0.33 0 0 0 -0.43,-0.16 v 0 a 4.76,4.76 0 0 1 -0.71,0.28 0.54,0.54 0 0 1 -0.66,-0.34 c -0.14,-0.26 0,-0.39 0.19,-0.56 0.19,-0.17 0.49,-0.28 0.58,-0.6 0,-0.17 0.19,0 0.26,0 a 6.93,6.93 0 0 1 1.22,1.07 c 1,1.11 1.94,2.32 2.870006,3.51 a 4.34,4.34 0 0 1 1.08,1.56 c 0,0.07 0,0.13 0.09,0.16 a 1,1 0 0 1 0.2,0.52 z"
       id="path49" />
    <path
       class="cls-13"
       d="m 53.707214,29.593668 0.22,-0.45 c -0.27,-0.1 -0.35,0.25 -0.58,0.24 a 0.18,0.18 0 0 1 -0.18,-0.07 c 0.65,-0.76 1.29,-1.51 1.93,-2.28 a 2.32,2.32 0 0 0 0.22,-0.3 v 0 c 0.25,0.15 0.07,0.33 0,0.48 -0.65,1.92 -1.45,3.78 -2,5.75 -0.16,0.63 -0.29,1.27 -0.45,1.91 a 1.14,1.14 0 0 1 -0.61,0.86 c -0.12,0 -0.24,0.14 -0.36,0.06 -0.12,-0.08 0,-0.24 0,-0.35 l 1.39,-4.92 c 0,-0.11 0,-0.22 0.06,-0.33 0.06,-0.11 0.26,-0.42 0.36,-0.6 z"
       id="path50" />
    <path
       class="cls-10"
       d="m 103.90722,24.923668 a 10.05,10.05 0 0 1 2.51,3.84 c 0.06,0.2 0.22,0.45 0,0.62 -0.22,0.17 -0.42,0 -0.63,-0.07 a 2.85,2.85 0 0 1 -1,-0.66 33.14,33.14 0 0 1 -5.000006,-6 c -0.12,-0.18 -0.35,-0.45 -0.2,-0.59 0.15,-0.14 0.430006,0.07 0.650006,0.12 0.22,0.05 0.2,0.22 0.36,0.21 a 0.19,0.19 0 0 1 0,0.19 c -0.1,0.3 0.1,0.51 0.25,0.73 a 20.49,20.49 0 0 0 2.12,2.7 13,13 0 0 0 2,2 0.53,0.53 0 0 0 0.11,0.09 c 0.11,0.07 0.23,0.24 0.36,0.15 0.13,-0.09 0,-0.3 0,-0.45 a 6.63,6.63 0 0 0 -0.59,-1 11.15,11.15 0 0 0 -0.9,-1.18 0.83,0.83 0 0 1 -0.25,-0.5 0.24,0.24 0 0 1 0.21,-0.2 z"
       id="path51" />
    <path
       class="cls-10"
       d="m 111.47722,60.143668 c 0.54,-1.48 1.08,-3 1.65,-4.5 0.58,1.14 -1,10.43 -1.88,11.23 0.19,-1 0.38,-2 0.56,-3 0.29,-1.49 0.57,-3 0.85,-4.49 0,-0.11 0.1,-0.24 0,-0.3 -0.1,-0.06 -0.18,0.09 -0.24,0.17 l -0.82,1.1 c -0.21,-0.04 -0.18,-0.13 -0.12,-0.21 z"
       id="path52" />
    <path
       class="cls-15"
       d="m 56.967214,80.143668 a 23,23 0 0 1 -1.8,-2 c -0.16,-0.22 -0.29,-0.45 -0.43,-0.68 a 0.39,0.39 0 0 1 0,-0.45 c 0.12,-0.15 0.29,-0.09 0.45,0 l 0.37,0.1 a 10.94,10.94 0 0 1 3.15,2.48 c 0.48,0.49 0.92,1 1.42,1.49 a 9.1,9.1 0 0 1 1.77,2.18 c 0,0.17 -0.07,0.17 -0.19,0.1 l -1.91,-0.9 c -0.11,0 -0.17,-0.07 -0.14,-0.19 0.03,-0.12 0.15,-0.14 0.27,-0.14 a 4,4 0 0 1 0.67,0.21 12.71,12.71 0 0 1 -0.8,-1.1 l -0.09,-0.08 a 1.12,1.12 0 0 1 -0.53,-0.4 23.71,23.71 0 0 0 -2.75,-2.45 1.52,1.52 0 0 0 -0.72,-0.38 c -0.06,0.19 0.08,0.27 0.17,0.36 0.73,0.73 1.39,1.54 2.15,2.25 a 0.88,0.88 0 0 1 0.35,0.55 0.1,0.1 0 0 1 -0.14,0.09 11.87,11.87 0 0 1 -1.27,-1.04 z"
       id="path53" />
    <path
       class="cls-11"
       d="m 44.777214,49.083668 c -0.17,0.9 -0.17,1.8 -0.35,2.7 a 12.34,12.34 0 0 1 -0.33,1.19 c -0.06,0.24 -0.27,0.21 -0.45,0.25 l -0.4,-1.47 c -0.11,-0.33 0.06,-0.68 -0.1,-1 a 0.07,0.07 0 0 1 0,-0.09 c 0.18,-0.11 0.26,0 0.31,0.15 0.05,0.15 0,0.27 0.09,0.4 0.09,0.13 0.05,0.25 0.18,0.25 0.13,0 0.18,-0.16 0.21,-0.28 a 17.15,17.15 0 0 0 0.32,-2.36 48,48 0 0 0 0.21,-5.09 c 0,-0.16 0.07,-0.35 -0.09,-0.48 -0.23,0 -0.21,0.48 -0.55,0.31 a 3.69,3.69 0 0 1 0.51,-1.27 c 0.11,-0.2 0.22,-0.51 0.5,-0.45 0.28,0.06 0.23,0.36 0.24,0.58 a 18.91,18.91 0 0 1 0,2.38 c -0.1,1.44 -0.24,2.86 -0.25,4.29 z"
       id="path54" />
    <path
       class="cls-16"
       d="m 114.53722,63.293668 a 2.4,2.4 0 0 1 -0.9,1.42 c -0.09,0.06 -0.23,0.16 -0.35,0.06 -0.12,-0.1 0,-0.2 0,-0.31 0.53,-3.07 1.07,-6.14 1.59,-9.22 a 2.2,2.2 0 0 1 0.8,-1.14 c 0.39,0.24 0.31,0.67 0.33,1 a 13.13,13.13 0 0 1 -0.15,3.65 9.09,9.09 0 0 1 -0.4,1.35 c -0.28,0.05 -0.2,-0.18 -0.25,-0.31 0,-0.9 0.19,-1.8 0.24,-2.7 a 2.43,2.43 0 0 0 -0.1,-1.31 69.07,69.07 0 0 0 -1.35,7.53 c 0.27,0 0.33,-0.19 0.47,-0.22 0.14,-0.03 0.14,0.07 0.07,0.2 z"
       id="path55" />
    <path
       class="cls-11"
       d="m 114.43722,45.593668 c -0.15,0.16 -0.12,0.45 -0.35,0.6 0.06,-1.4 0.12,-2.76 0.19,-4.18 0.21,0.1 0.21,0.26 0.25,0.37 a 30,30 0 0 1 1.18,7.65 c 0,0.81 0.1,1.62 0.09,2.44 a 2.57,2.57 0 0 1 -0.19,1.02 c -0.29,0 -0.19,-0.21 -0.18,-0.33 0.21,-2.3 -0.3,-4.55 -0.4,-6.83 a 2.5,2.5 0 0 0 -0.34,-1.26 0.67,0.67 0 0 0 -0.25,0.52 z"
       id="path56" />
    <path
       class="cls-17"
       d="m 110.11722,31.593668 c -0.15,-0.09 -0.29,-0.19 -0.45,-0.27 a 0.44,0.44 0 0 0 -0.49,0 c -0.17,0.15 0,0.3 0.05,0.45 0.82,1.95 1.65,3.89 2.47,5.85 0.18,0.43 0.35,0.85 0.52,1.28 -0.24,0.09 -0.21,0.3 -0.18,0.56 -0.25,-0.3 -0.35,-0.55 -0.15,-0.83 a 0.16,0.16 0 0 0 0,-0.22 c -0.1,-0.09 -0.17,0 -0.25,0 -0.08,0 -0.15,0.07 -0.1,0.19 a 2.91,2.91 0 0 1 0.13,1.31 19.42,19.42 0 0 0 -0.78,-3.09 24.42,24.42 0 0 0 -2.59,-5.23 c 0.36,0.14 0.24,-0.27 0.43,-0.37 a 1.27,1.27 0 0 1 1.3,-0.15 c -0.08,0.11 -0.26,0 -0.37,0.08 0.16,0.13 0.73,-0.13 0.46,0.44 z"
       id="path57" />
    <path
       class="cls-10"
       d="m 63.767214,19.683668 c 0.34,0 0.4,0.1 0.32,0.42 a 5.79,5.79 0 0 1 -1.76,2.55 10.77,10.77 0 0 1 -1.45,1.15 c -0.11,0.18 -0.32,0.21 -0.48,0.32 a 1.36,1.36 0 0 1 -0.48,0.16 c -0.19,0 -0.37,0.08 -0.56,0.1 a 0.55,0.55 0 0 1 -0.67,-0.4 0.56,0.56 0 0 1 0,-0.4 1.73,1.73 0 0 1 0.52,-0.83 c 0.42,-0.17 0.48,-0.1 0.39,0.49 v 0 c -0.09,0.47 -0.05,0.5 0.57,0.37 a 4.73,4.73 0 0 0 2.63,-2.55 c 0.09,-0.18 0.22,-0.31 0.31,-0.48 0.09,-0.17 0.22,-0.57 -0.33,-0.54 a 1.66,1.66 0 0 1 0.53,-0.38 0.42,0.42 0 0 1 0.46,0.02 z"
       id="path58" />
    <path
       class="cls-18"
       d="m 115.38722,60.113668 a 13.24,13.24 0 0 0 0.49,-4.56 5.1,5.1 0 0 0 -0.22,-1.45 0.45,0.45 0 0 1 0.55,0.2 c 0.12,-0.16 -0.1,-0.28 0,-0.45 l 0.25,0.32 c 0.05,0.45 0.05,0.45 -0.45,0.36 0.18,0.16 0.1,0.37 0.28,0.54 a 1.24,1.24 0 0 0 0.18,-0.9 c 0,-0.4 0.52,-0.07 0.5,-0.45 0.18,0.12 0.07,0.29 0.08,0.45 0,0.62 0,1.24 0,1.85 a 3.74,3.74 0 0 1 -0.17,1 1.53,1.53 0 0 0 0,0.9 c 0,0.08 -0.23,0.34 -0.27,0.32 -0.45,-0.2 -0.19,0.19 -0.23,0.29 -0.04,0.1 0,0.55 -0.42,0.26 0,-0.53 0.18,-1.09 0.19,-1.66 0,0.59 -0.24,1.15 -0.19,1.66 0,0.24 0,0.23 -0.15,0.37 -0.15,0.14 -0.13,0.17 0,0.25 0.13,0.08 0.15,0.29 0.28,0.12 0.13,-0.17 0.16,-0.14 0.21,0 0.05,0.14 0,0.18 -0.12,0.25 -0.12,0.07 -0.45,-0.15 -0.5,0.08 a 3.11,3.11 0 0 0 -0.11,1 c 0,0.22 0.08,0.42 -0.18,0.53 0,0 0,0.07 0,0.08 0.32,0.5 -0.32,0.5 -0.4,0.79 -0.2,-0.34 0,-0.64 0.07,-1 a 4.24,4.24 0 0 0 0.11,-0.45 c 0.04,-0.14 -0.01,-0.48 0.22,-0.7 z"
       id="path59" />
    <path
       class="cls-17"
       d="m 58.287214,81.023668 -2.38,-2.52 c -0.11,-0.12 -0.23,-0.23 -0.33,-0.35 -0.1,-0.12 -0.24,-0.2 -0.11,-0.36 0.13,-0.16 0.27,-0.06 0.39,0 a 6.11,6.11 0 0 1 0.75,0.5 21.88,21.88 0 0 1 3,2.81 2.66,2.66 0 0 1 -1.15,0.2 0.83,0.83 0 0 1 -0.17,-0.28 z"
       id="path60" />
    <path
       class="cls-11"
       d="m 83.237214,18.873668 c -1,0.25 -1,0.24 -1.58,-0.58 a 15.39,15.39 0 0 0 -1.05,-1.55 0.39,0.39 0 0 0 -0.48,-0.17 c -0.41,0.13 -0.84,0.21 -1.25,0.31 -0.13,0 -0.27,0.07 -0.3,-0.12 -0.03,-0.19 0.11,-0.23 0.24,-0.23 a 2.6,2.6 0 0 0 1.43,-0.45 0.56,0.56 0 0 1 0.64,0 5.59,5.59 0 0 1 1.32,1.2 c 0.29,0.59 0.65,1.05 1.03,1.59 z"
       id="path61" />
    <path
       class="cls-10"
       d="m 67.607214,18.433668 c 0.22,-0.18 0.5,-0.24 0.65,-0.57 0.15,-0.33 0.51,-0.19 0.85,-0.17 a 11.75,11.75 0 0 0 -0.82,3.1 c 0,0.21 -0.9,0.67 -1.09,0.56 -0.19,-0.11 -0.08,-0.29 0,-0.45 a 10.52,10.52 0 0 1 0.59,-2 c 0,-0.12 0.21,-0.31 -0.12,-0.29 a 0.17,0.17 0 0 1 -0.06,-0.18 z"
       id="path62" />
    <path
       class="cls-19"
       d="m 85.317214,16.333668 a 5.3,5.3 0 0 1 2.35,1.26 c 0.54,0.49 1,1 1.61,1.65 -0.48,-0.08 -0.87,0 -1.22,-0.36 a 17.58,17.58 0 0 0 -2.37,-2.19 c -0.13,-0.1 -0.24,0 -0.35,0 a 2.2,2.2 0 0 1 -1.53,-0.1 c 0.31,-0.3 0.79,0.12 1,-0.27 0.2,-0.12 0.35,-0.05 0.51,0.01 z"
       id="path63" />
    <path
       class="cls-20"
       d="m 108.88722,70.943668 a 0.81,0.81 0 0 1 0.32,-0.56 6.14,6.14 0 0 0 1.49,-2.29 1,1 0 0 1 0.51,-0.7 0.77,0.77 0 0 1 0,0.68 29.6,29.6 0 0 1 -1.66,3.68 c -0.2,0.33 -0.17,0.79 -0.56,1 -0.09,0 -0.12,0 -0.13,-0.12 a 7.54,7.54 0 0 1 0.93,-2.25 2.63,2.63 0 0 1 -0.82,0.77 c -0.11,-0.03 -0.15,-0.1 -0.08,-0.21 z"
       id="path64" />
    <path
       class="cls-21"
       d="m 97.607214,19.783668 a 3.1,3.1 0 0 1 1.55,1.19 c 0.1,0.12 0.24,0.14 0.36,0.22 a 0.27,0.27 0 0 1 0.09,0.3 c 0,0.18 -0.17,0.12 -0.27,0.1 a 2.79,2.79 0 0 1 -0.58,-0.18 18.13,18.13 0 0 1 -3,-1.67 4.88,4.88 0 0 1 -1.21,-1 3,3 0 0 1 1.16,0.56 c 0.18,0.13 0.29,0.35 0.55,0.36 0.26,0.01 0.45,0.22 0.64,0.37 a 8.14,8.14 0 0 0 1.63,0.78 c -0.37,-0.19 -0.56,-0.56 -0.92,-0.74 -0.11,-0.06 -0.24,-0.11 -0.22,-0.28 a 0.16,0.16 0 0 1 0.18,-0.09 z"
       id="path65" />
    <path
       class="cls-22"
       d="m 116.08722,47.383668 v -0.36 c 0,-0.1 -0.09,-0.21 0.1,-0.21 q 0.28,1.34 0.45,2.7 a 10.13,10.13 0 0 1 0.07,1.46 c 0,0.15 0,0.32 0.19,0.33 0.19,0.01 0.17,-0.16 0.2,-0.28 a 2.27,2.27 0 0 0 0,-0.9 c 0,-0.24 0,-0.47 0,-0.71 a 6,6 0 0 1 0,-1.12 c 0,-0.08 0,-0.15 0.12,-0.15 a 13,13 0 0 1 0.07,3.24 1.65,1.65 0 0 0 -0.13,0.79 c 0,0.12 0.05,0.27 -0.15,0.28 -0.2,0.01 -0.23,-0.07 -0.26,-0.24 -0.22,-1.44 -0.37,-2.88 -0.48,-4.33 -0.19,-0.16 -0.1,-0.29 -0.18,-0.5 z"
       id="path66" />
    <path
       class="cls-23"
       d="m 43.817214,43.593668 c 0.31,0 0.24,-0.42 0.5,-0.45 a 0.43,0.43 0 0 1 0,0.41 14.26,14.26 0 0 0 -0.71,3.89 16,16 0 0 0 0,3.39 0.49,0.49 0 0 1 -0.12,0.4 c -0.24,-0.12 0.07,-0.54 -0.31,-0.58 l -0.08,-1.06 a 3.21,3.21 0 0 1 -0.05,-1.6 8.11,8.11 0 0 0 0.11,-1.71 1.79,1.79 0 0 1 0.22,-0.9 10.6,10.6 0 0 1 0.44,-1.79 z"
       id="path67" />
    <path
       class="cls-24"
       d="m 55.307214,26.683668 c -0.17,0 -0.25,0 -0.18,-0.23 0.14,-0.45 0.51,-0.72 0.7,-1.12 a 15.72,15.72 0 0 1 1.86,-2.59 0.42,0.42 0 0 1 0.32,-0.15 0.15,0.15 0 0 1 0,0.2 v 0 a 10.6,10.6 0 0 1 -1.35,1.8 c -0.09,0.09 -0.08,0.21 -0.12,0.3 a 4.46,4.46 0 0 1 -1.26,1.8 z"
       id="path68" />
    <path
       class="cls-25"
       d="m 43.427214,58.313668 c 0.36,1.47 0.72,3 1.07,4.42 0,0.06 0,0.12 0.07,0.18 0.07,0.06 0.06,0.24 0,0.37 a 5.77,5.77 0 0 1 0.16,1.24 c -0.65,-0.16 -0.64,-0.75 -0.82,-1.22 0.16,-0.08 0.19,0.13 0.38,0.1 a 16.1,16.1 0 0 0 -0.45,-2.38 11.89,11.89 0 0 1 -0.49,-2.43 c -0.02,-0.1 -0.14,-0.25 0.08,-0.28 z"
       id="path69" />
    <path
       class="cls-26"
       d="m 91.067214,17.463668 a 7.63,7.63 0 0 1 1.29,0.78 13.71,13.71 0 0 1 2.2,1.9 0.91,0.91 0 0 1 -0.75,-0.16 4.71,4.71 0 0 1 -1,-0.86 c -0.29,-0.42 -0.78,-0.59 -1.15,-0.9 -0.37,-0.31 -0.59,-0.3 -0.76,-0.61 -0.17,-0.31 0.11,-0.1 0.17,-0.15 z"
       id="path70" />
    <path
       class="cls-24"
       d="m 96.437214,81.973668 a 5.54,5.54 0 0 1 2.11,-1.23 1,1 0 0 1 0.85,-0.2 c 0.29,0.3 0,1 -0.47,1.19 a 1.72,1.72 0 0 1 -0.39,0 0.21,0.21 0 0 1 -0.05,-0.17 c 0.1,-0.38 -0.1,-0.33 -0.32,-0.2 a 8.43,8.43 0 0 1 -1.35,0.66 h -0.11 c -0.1,0.07 -0.25,0.17 -0.27,-0.05 z"
       id="path71" />
    <path
       class="cls-27"
       d="m 42.967214,43.943668 c 0.4,0.23 0.17,0.57 0.16,0.86 -0.01,0.29 -0.1,0.39 0,0.58 0.1,0.19 0,0.52 0,0.77 -0.05,0.9 -0.06,1.8 -0.19,2.7 a 0.5,0.5 0 0 1 -0.09,0.36 l -0.18,1.07 c -0.15,-0.15 0,-0.35 -0.1,-0.5 0.17,-1.25 0,-2.51 0.26,-3.75 a 1.22,1.22 0 0 0 -0.16,-1.19 c -0.08,-0.09 0,-0.17 0,-0.26 a 0.45,0.45 0 0 1 0.17,-0.61 z"
       id="path72" />
    <path
       class="cls-28"
       d="m 97.387214,19.883668 c 0.51,0.09 0.69,0.67 1.19,0.78 0.14,0 0.12,0.18 0.09,0.28 -0.03,0.1 -0.18,0.1 -0.27,0 a 6.39,6.39 0 0 1 -1.91,-1.1 1.48,1.48 0 0 0 -0.27,-0.19 c 0.19,0 0.08,-0.26 0.25,-0.25 0,-0.33 0.35,-0.24 0.4,-0.2 0.2,0.21 0.56,0.17 0.7,0.45 -0.05,0.12 -0.26,0.02 -0.18,0.23 z"
       id="path73" />
    <path
       class="cls-29"
       d="m 112.22722,67.673668 a 3.63,3.63 0 0 1 1.16,-2.23 c 0.1,-0.08 0.11,-0.24 0.18,-0.37 a 0.25,0.25 0 0 1 0.31,-0.16 c 0.16,0 0.06,0.18 0,0.29 a 2.82,2.82 0 0 1 -0.45,1.46 c -0.06,0.07 -0.07,0.18 -0.24,0.16 0,-0.3 0.21,-0.53 0.24,-0.84 -0.3,0 -0.4,0.16 -0.49,0.38 -0.2,0.48 -0.45,0.95 -0.66,1.42 -0.04,0.01 -0.09,0.01 -0.05,-0.11 z"
       id="path74" />
    <path
       class="cls-30"
       d="m 103.82722,78.083668 0.09,-0.1 a 0.71,0.71 0 0 1 0.28,-0.51 8.78,8.78 0 0 0 0.6,-0.8 0.29,0.29 0 0 1 0.25,-0.1 1.72,1.72 0 0 0 0.33,0.51 c 0.1,0.13 0.2,0.28 0,0.38 -0.2,0.1 -0.49,0.13 -0.48,0.45 -0.08,0.08 0,0.31 -0.16,0.27 -0.54,-0.1 -0.77,0.11 -0.75,0.65 0,0 0,0.07 -0.09,0.15 -0.13,-0.19 -0.27,-0.37 -0.52,-0.28 -0.05,-0.33 0.23,-0.46 0.45,-0.62 z"
       id="path75" />
    <path
       class="cls-31"
       d="m 48.217214,71.723668 c -0.1,0 -0.2,-0.09 -0.32,0 -0.28,0.21 -0.41,0 -0.51,-0.22 0,0 0.18,0 0.11,-0.1 a 14.77,14.77 0 0 1 -0.89,-1.81 c -0.07,-0.12 -0.05,0.07 -0.1,0 -0.45,-0.32 -0.14,-0.63 0,-1 0.22,0 0.24,0.16 0.32,0.27 0.17,0.26 0.32,0.52 0.48,0.77 a 4.9,4.9 0 0 1 0.3,0.96 7.71,7.71 0 0 0 0.52,0.75 c 0.04,0.08 0.18,0.19 0.09,0.38 z"
       id="path76" />
    <path
       class="cls-32"
       d="m 113.18722,37.223668 -0.18,0.2 c -0.22,0 -0.23,-0.2 -0.28,-0.33 a 18,18 0 0 0 -1.47,-3.3 0.41,0.41 0 0 1 -0.07,-0.4 0.21,0.21 0 0 0 0.2,-0.13 l 0.45,0.61 a 20.58,20.58 0 0 1 1.35,3.35 z"
       id="path77" />
    <path
       class="cls-22"
       d="m 42.607214,49.793668 c 0.14,0.15 0,0.34 0.09,0.51 v 2.7 c 0,0.29 -0.27,0.49 -0.17,0.8 0,0.06 -0.07,0.09 -0.14,0.08 -0.07,-0.01 -0.23,0 -0.26,-0.16 -0.03,-0.16 0,-0.31 0,-0.47 0,-0.16 -0.27,-0.53 0.22,-0.52 0.29,-0.06 0.14,-0.27 0.15,-0.42 a 15.22,15.22 0 0 1 0.11,-2.52 z"
       id="path78" />
    <path
       class="cls-33"
       d="m 112.22722,67.673668 0.1,0.11 c -0.62,1.61 -1.57,3 -2.21,4.64 l -0.22,-0.11 z"
       id="path79" />
    <path
       class="cls-34"
       d="m 51.867214,28.483668 a 9.77,9.77 0 0 0 1.25,-1.61 c 0.45,-0.63 1,-1.21 1.43,-1.83 0.19,0 0.16,0.11 0.12,0.22 a 29.07,29.07 0 0 0 -1.8,2.33 6.56,6.56 0 0 1 -0.9,1 c -0.09,0 -0.13,0 -0.1,-0.11 z"
       id="path80" />
    <path
       class="cls-35"
       d="m 108.96722,71.133668 0.94,-1.08 a 1.26,1.26 0 0 1 -0.24,0.88 6.51,6.51 0 0 0 -0.79,1.74 c 0,0 0,0 -0.08,0 -0.11,-0.22 0.08,-0.41 0,-0.63 -0.08,-0.22 0.14,-0.37 -0.21,-0.44 -0.35,-0.07 -0.06,-0.22 0.06,-0.31 0.12,-0.09 0.07,0.08 0,0.14 v -0.1 a 0.51,0.51 0 0 1 0.32,-0.2 z"
       id="path81" />
    <path
       class="cls-36"
       d="m 59.607214,23.253668 c 0,-0.25 0.11,-0.63 -0.39,-0.49 a 6.9,6.9 0 0 1 2,-1.94 c 0.12,0.17 0,0.23 -0.08,0.31 -0.27,0.3 -0.55,0.61 -0.84,0.9 a 1.91,1.91 0 0 0 -0.69,1.22 z"
       id="path82" />
    <path
       class="cls-37"
       d="m 103.82722,78.083668 -0.49,0.63 -0.94,1 a 0.85,0.85 0 0 1 -0.23,0 0.45,0.45 0 0 1 -0.23,0 0.18,0.18 0 0 1 -0.1,-0.16 c 0.15,-0.45 0.62,-0.54 0.93,-0.82 v 0 a 3.32,3.32 0 0 1 0.66,-0.69 c 0,-0.11 0,-0.24 0.18,-0.23 a 0.27,0.27 0 0 1 0.22,0.27 z"
       id="path83" />
    <path
       class="cls-38"
       d="m 103.90722,24.923668 -0.12,0.23 c -0.15,0 -0.22,-0.08 -0.3,-0.17 a 18.5,18.5 0 0 0 -2.2,-1.94 c -0.21,-0.16 -0.56,-0.15 -0.66,-0.45 v -0.18 a 6.14,6.14 0 0 1 1.8,1.18 9.68,9.68 0 0 1 1.48,1.33 z"
       id="path84" />
    <path
       class="cls-21"
       d="m 42.387214,54.293668 c 0.06,0 0.16,0 0.16,0.08 a 10.53,10.53 0 0 1 0.53,1.82 c 0,0.11 0.13,0.26 -0.1,0.3 a 1.31,1.31 0 0 0 -0.28,-0.58 0.85,0.85 0 0 1 -0.15,-0.37 c 0,0 0,0.14 0,0.2 v 0 a 0.1,0.1 0 0 1 -0.14,0 v 0 a 2,2 0 0 1 -0.02,-1.45 z"
       id="path85" />
    <path
       class="cls-39"
       d="m 42.877214,49.203668 a 27.46,27.46 0 0 1 0.29,-3.84 h 0.17 c -0.14,1 0,2 -0.24,3 a 7.89,7.89 0 0 0 0,1.19 c -0.19,-0.05 -0.07,-0.26 -0.22,-0.35 z"
       id="path86" />
    <path
       class="cls-27"
       d="m 49.677214,74.203668 c 0,-0.14 -0.19,-0.22 -0.15,-0.5 0.82,0.83 1.51,1.67 2.21,2.49 l -0.09,0.1 c -0.15,-0.11 -0.31,-0.22 -0.45,-0.34 -0.14,-0.12 -0.31,-0.27 -0.45,-0.41 l -0.67,-0.86 a 0.86,0.86 0 0 1 -0.38,-0.48 z"
       id="path87" />
    <path
       class="cls-33"
       d="m 115.41722,40.483668 0.33,1 c 0,0.09 0.09,0.19 0,0.24 -0.09,0.05 -0.17,-0.06 -0.2,-0.15 l -0.45,-1.35 -0.72,-2.11 c 0,-0.06 -0.13,-0.14 0,-0.19 0.13,-0.05 0.13,0.06 0.2,0.11 a 22.57,22.57 0 0 0 0.84,2.45 z"
       id="path88" />
    <path
       class="cls-40"
       d="m 117.10722,48.153668 c -0.17,0.41 0,0.84 -0.09,1.26 -0.09,-1 -0.18,-1.91 -0.28,-2.87 0,-0.55 -0.13,-1.1 -0.2,-1.64 0,-0.1 0,-0.13 0.1,-0.1 a 8.93,8.93 0 0 1 0.39,2.41 c 0.04,0.31 0.07,0.62 0.08,0.94 z"
       id="path89" />
    <path
       class="cls-41"
       d="m 52.187214,76.023668 c 0,-0.22 -0.21,-0.35 -0.27,-0.56 a 0.45,0.45 0 0 1 0.56,0.3 0.13,0.13 0 0 1 0,0.06 c 0,0.45 0.45,0.64 0.64,1 0.19,0.36 -0.15,0.13 -0.2,0.21 -0.05,0.08 0,0.22 -0.19,0.15 a 0.77,0.77 0 0 1 -0.5,-0.72 c 0.01,-0.18 0.09,-0.32 -0.04,-0.44 z"
       id="path90" />
    <path
       class="cls-42"
       d="m 91.067214,17.463668 -0.2,0.13 a 2.54,2.54 0 0 0 -1.56,-0.21 0.23,0.23 0 0 1 -0.31,-0.14 0.08,0.08 0 0 1 0,-0.05 c 0,-0.15 0.19,-0.13 0.29,-0.17 0.1,-0.04 0.32,0 0.34,-0.2 0.25,0 0.53,-0.09 0.74,0.15 a 1.24,1.24 0 0 0 0.7,0.49 z"
       id="path91" />
    <path
       class="cls-43"
       d="m 42.307214,52.733668 c -0.33,0.07 -0.15,0.35 -0.22,0.52 a 8.57,8.57 0 0 1 0.07,-3.89 v 1.23 c 0,0.59 0,1.17 0,1.76 a 0.41,0.41 0 0 0 0.15,0.38 z"
       id="path92" />
    <path
       class="cls-44"
       d="m 101.78722,73.643668 v -0.35 c -0.45,0.25 -0.63,0.72 -1,1 0,-0.08 -0.1,-0.16 0,-0.22 0.1,-0.06 0.34,-0.35 0.07,-0.6 -0.27,-0.25 0,-0.26 0.12,-0.34 0,0.17 0.06,0.22 0.23,0.13 l 0.83,-0.45 c 0,0.18 -0.37,0.32 0,0.56 0.03,0.03 -0.1,0.22 -0.25,0.27 z"
       id="path93" />
    <path
       class="cls-45"
       d="m 96.817214,82.063668 c 0.4,-0.24 0.81,-0.47 1.2,-0.72 0.21,-0.14 0.45,-0.26 0.65,-0.11 0.2,0.15 -0.14,0.35 -0.13,0.54 z"
       id="path94" />
    <path
       class="cls-21"
       d="m 43.447214,42.693668 c 0,0.45 -0.4,0.75 -0.58,1.13 a 1.55,1.55 0 0 1 -0.22,0.61 c -0.17,-0.08 -0.11,-0.2 -0.07,-0.32 a 10.23,10.23 0 0 1 0.32,-1.65 c 0.15,0.45 0.31,0.18 0.45,0 0.14,-0.18 0.15,0.13 0.1,0.23 z"
       id="path95" />
    <path
       class="cls-27"
       d="m 45.247214,66.593668 c 0,0.1 -0.11,0.25 -0.2,0 a 4,4 0 0 1 -0.44,-1.63 c 0.55,0.13 0.6,0.61 0.76,1 a 0.21,0.21 0 0 1 0,0.19 c -0.3,0.02 -0.04,0.29 -0.12,0.44 z"
       id="path96" />
    <path
       class="cls-46"
       d="m 43.447214,42.693668 -0.09,-0.2 c 0.09,-0.38 0.19,-0.75 0.29,-1.13 0.3,-0.49 0.32,-1.11 0.7,-1.58 a 14.85,14.85 0 0 1 -0.9,2.91 z"
       id="path97" />
    <path
       class="cls-47"
       d="m 59.737214,81.183668 a 5.66,5.66 0 0 1 1.06,1.23 3.42,3.42 0 0 1 -0.9,-0.24 c -0.26,-0.06 -0.3,0 -0.13,0.23 -0.28,0 -0.36,-0.11 -0.18,-0.26 0.18,-0.15 0.22,-0.62 0.15,-0.96 z"
       id="path98" />
    <path
       class="cls-48"
       d="m 71.317214,86.273668 c -0.25,-0.5 -0.18,-0.62 0.37,-0.57 0.55,0.05 0.84,0.14 1.26,0.2 0,0 0,0 0,0 v 0 z"
       id="path99" />
    <path
       class="cls-49"
       d="m 107.83722,74.783668 a 0.59,0.59 0 0 1 -0.34,0.59 3.69,3.69 0 0 0 -1.35,1.1 0.34,0.34 0 0 1 -0.34,0.17 c 0.34,-0.72 1,-1.06 1.53,-1.58 0.17,-0.14 0.19,-0.47 0.5,-0.28 z"
       id="path100" />
    <path
       class="cls-50"
       d="m 47.257214,69.713668 c -0.35,-0.27 -0.45,-0.74 -0.75,-1.05 l -0.1,-0.21 a 1.14,1.14 0 0 1 -0.28,-0.57 l -0.21,-0.54 c 0,-0.11 0,-0.13 0.11,-0.11 l 0.41,0.67 0.94,1.82 a 0.08,0.08 0 0 1 -0.12,-0.01 z"
       id="path101" />
    <path
       class="cls-51"
       d="m 46.497214,69.593668 v -0.29 c 0.59,0.74 0.66,1.66 1.3,2.32 -0.26,0 -0.31,-0.12 -0.43,-0.15 a 7.85,7.85 0 0 1 -0.87,-1.88 z"
       id="path102" />
    <path
       class="cls-6"
       d="m 45.457214,37.993668 c 0,-0.14 -0.37,-0.27 0,-0.45 0.09,0 -0.09,-0.17 -0.17,-0.22 -0.08,-0.05 -0.25,-0.17 -0.19,-0.34 a 0.21,0.21 0 0 1 0.23,-0.14 c 0.18,0 0.22,0.16 0.22,0.31 a 0.33,0.33 0 0 0 0.09,0.27 3.67,3.67 0 0 1 0.69,-1.45 c 0.16,0.26 -0.09,0.45 -0.15,0.64 a 1.8,1.8 0 0 0 -0.16,0.38 c -0.11,0.25 0,0.6 -0.25,0.8 a 0.61,0.61 0 0 0 -0.31,0.18 z"
       id="path103" />
    <path
       class="cls-52"
       d="m 72.477214,19.863668 a 8.76,8.76 0 0 0 2.7,-0.25 c 0,0.1 -0.16,0.12 -0.24,0.18 -0.08,0.06 0,0.06 0.07,0.1 a 9.16,9.16 0 0 1 -1.65,0.27 c 0.09,-0.22 -0.07,-0.17 -0.19,-0.19 -0.12,-0.02 -0.49,0.13 -0.69,-0.11 z"
       id="path104" />
    <path
       class="cls-17"
       d="m 112.24722,38.933668 a 11.14,11.14 0 0 1 0.75,1.74 c -0.26,0 -0.35,-0.25 -0.42,-0.45 -0.15,-0.43 -0.22,-0.49 -0.65,-0.36 0.32,-0.27 0.13,-0.64 0.32,-0.93 z"
       id="path105" />
    <path
       class="cls-53"
       d="m 48.607214,72.193668 a 1.4,1.4 0 0 1 0.55,0.74 c 0.05,0.18 0.12,0.45 -0.24,0.39 a 7.13,7.13 0 0 0 -0.45,-0.67 c -0.18,-0.21 -0.17,-0.29 0,-0.45 a 0.09,0.09 0 0 1 0.11,-0.07 0.11,0.11 0 0 1 0.03,0.06 z"
       id="path106" />
    <path
       class="cls-54"
       d="m 101.29722,26.913668 -1.07,-1.56 c 0.22,0 0.34,0.34 0.6,0.15 0,0 0.08,0.08 0.08,0.1 -0.11,0.54 0.42,0.71 0.6,1.08 v 0 z"
       id="path107" />
    <path
       class="cls-55"
       d="m 113.09722,35.113668 a 1.13,1.13 0 0 1 -0.64,-1.24 c 0.47,0.23 0.56,0.72 0.77,1.13 0.02,0.11 -0.03,0.13 -0.13,0.11 z"
       id="path108" />
    <path
       class="cls-56"
       d="m 67.607214,18.433668 v 0.23 l -1.4,0.68 c -0.1,0.05 -0.23,0.13 -0.29,0 -0.06,-0.13 0.08,-0.18 0.17,-0.23 z"
       id="path109" />
    <path
       class="cls-57"
       d="m 102.76722,78.723668 -0.9,0.84 a 0.46,0.46 0 0 1 -0.35,0.35 0.14,0.14 0 0 1 -0.12,0 c 0,-0.2 0,-0.38 0.22,-0.45 0,0 0.12,0 0.12,-0.07 0.03,-0.8 0.7,-0.45 1.03,-0.67 z"
       id="path110" />
    <path
       class="cls-58"
       d="m 48.607214,72.193668 h -0.16 a 0.54,0.54 0 0 0 -0.23,-0.47 7.28,7.28 0 0 1 -0.61,-1.13 c 0,-0.09 -0.09,-0.19 0.09,-0.19 a 7.7,7.7 0 0 0 0.72,1.07 0.92,0.92 0 0 1 0.19,0.72 z"
       id="path111" />
    <path
       class="cls-59"
       d="m 51.867214,28.483668 0.11,0.12 a 11.31,11.31 0 0 0 -1.17,1.42 0.18,0.18 0 0 1 -0.22,0.09 4.25,4.25 0 0 1 1.28,-1.63 z"
       id="path112" />
    <path
       class="cls-60"
       d="m 46.127214,36.643668 c 0.07,-0.22 0.14,-0.45 0.21,-0.66 a 7.53,7.53 0 0 1 0.39,-0.85 c 0.08,-0.16 0.12,-0.38 0.36,-0.4 a 10.64,10.64 0 0 1 -0.9,2 c -0.06,0.02 -0.12,0.02 -0.06,-0.09 z"
       id="path113" />
    <path
       class="cls-61"
       d="m 54.207214,77.933668 a 6.91,6.91 0 0 0 1.4,1.35 c -0.34,0.1 -0.45,-0.14 -0.6,-0.18 a 8,8 0 0 1 -0.86,-1.05 c -0.08,-0.11 -0.05,-0.16 0.06,-0.12 z"
       id="path114" />
    <path
       class="cls-62"
       d="m 61.657214,83.303668 c 0.08,0 0.15,0 0.19,-0.1 0.4,0.25 0.95,0.22 1.25,0.81 a 6.89,6.89 0 0 1 -1.44,-0.71 z"
       id="path115" />
    <path
       class="cls-63"
       d="m 115.09722,61.363668 -0.19,1 c -0.17,0.3 -0.15,0.68 -0.37,1 l -0.08,-0.18 c -0.12,-0.27 0,-0.5 0.12,-0.72 a 4.44,4.44 0 0 1 0.36,-1.12 c 0.09,-0.11 0.13,-0.05 0.16,0.02 z"
       id="path116" />
    <path
       class="cls-64"
       d="m 107.75722,74.403668 c 0.31,-0.22 0.25,-0.72 0.65,-0.87 a 0.11,0.11 0 0 1 0.09,0.1 2.61,2.61 0 0 1 -0.66,1.06 c -0.23,-0.04 -0.18,-0.1 -0.08,-0.29 z"
       id="path117" />
    <path
       class="cls-65"
       d="m 54.207214,77.933668 -0.13,0.11 a 2.78,2.78 0 0 1 -0.84,-0.9 0.25,0.25 0 0 0 -0.31,-0.15 l 0.2,-0.21 z"
       id="path118" />
    <path
       class="cls-66"
       d="m 99.407214,80.593668 -0.86,0.2 v -0.22 a 1.58,1.58 0 0 0 1,-0.58 z"
       id="path119" />
    <path
       class="cls-67"
       d="m 113.09722,35.113668 0.11,-0.11 a 2.91,2.91 0 0 1 0.66,1.46 5.31,5.31 0 0 1 -0.77,-1.35 z"
       id="path120" />
    <path
       class="cls-68"
       d="m 108.49722,73.643668 -0.09,-0.1 c 0.12,-0.28 0.11,-0.63 0.39,-0.84 h 0.08 l 0.09,0.1 a 1.06,1.06 0 0 1 -0.47,0.84 z"
       id="path121" />
    <path
       class="cls-69"
       d="m 85.317214,16.333668 h -0.48 c -0.36,-0.23 -0.83,-0.08 -1.19,-0.34 a 2.57,2.57 0 0 1 1.67,0.34 z"
       id="path122" />
    <path
       class="cls-70"
       d="m 113.13722,67.403668 a 2.45,2.45 0 0 1 -0.53,1.19 c -0.12,-0.27 0,-0.56 0.53,-1.19 z"
       id="path123" />
    <path
       class="cls-71"
       d="m 102.15722,79.593668 0.24,0.09 c -0.18,0.22 -0.36,0.45 -0.55,0.65 -0.19,0.2 -0.16,0.18 -0.25,0 a 0.5,0.5 0 0 1 0,-0.27 0.39,0.39 0 0 1 0.11,-0.17 c 0.1,-0.12 0.36,-0.08 0.45,-0.3 z"
       id="path124" />
    <path
       class="cls-72"
       d="m 105.04722,76.593668 -0.18,0.14 a 0.16,0.16 0 0 1 -0.13,-0.14 c 0.21,-0.38 0.34,-0.83 0.78,-1 l 0.1,0.12 c -0.1,0.29 -0.43,0.52 -0.57,0.88 z"
       id="path125" />
    <path
       class="cls-73"
       d="m 76.477214,18.913668 a 1.9,1.9 0 0 1 0.5,-0.48 c 0,0.19 0.35,0.31 0.1,0.53 -0.25,0.22 -0.4,-0.05 -0.6,-0.05 z"
       id="path126" />
    <path
       class="cls-10"
       d="m 106.79722,70.313668 c 0.23,-0.39 0.4,-0.82 0.87,-1 a 2.92,2.92 0 0 1 -0.87,1 z"
       id="path127" />
    <path
       class="cls-57"
       d="m 103.42722,78.043668 a 1.57,1.57 0 0 1 -0.67,0.68 c -0.12,-0.12 0.33,-0.3 0,-0.41 0.19,-0.12 0.38,-0.31 0.67,-0.27 z"
       id="path128" />
    <path
       class="cls-74"
       d="m 104.85722,77.923668 c -0.11,0 -0.2,0.17 -0.3,0 -0.1,-0.17 0.06,-0.18 0.15,-0.24 l 0.49,-0.37 c 0.17,-0.12 0.13,0 0.14,0.11 z"
       id="path129" />
    <path
       class="cls-75"
       d="m 91.607214,82.743668 c 0.1,0.14 0.26,0.06 0.39,0.09 a 8.88,8.88 0 0 1 -1.54,0.28 c 0.08,-0.12 0.26,-0.07 0.31,-0.21 0.3,-0.12 0.54,-0.31 0.84,-0.16 z"
       id="path130" />
    <path
       class="cls-76"
       d="m 107.75722,74.403668 a 0.23,0.23 0 0 0 0.08,0.29 v 0.09 c -0.22,0 -0.31,0.23 -0.49,0.28 -0.1,-0.37 0.16,-0.47 0.41,-0.66 z"
       id="path131" />
    <path
       class="cls-77"
       d="m 46.027214,67.213668 -0.11,0.11 -0.48,-0.9 v 0 a 0.18,0.18 0 0 1 0.09,-0.06 z"
       id="path132" />
    <path
       class="cls-78"
       d="m 68.357214,85.793668 c 0.25,0.14 0.55,0.13 0.79,0.33 -0.53,0.11 -0.74,0 -0.79,-0.34 z"
       id="path133" />
    <path
       class="cls-79"
       d="m 54.677214,79.133668 c -0.35,-0.12 -0.61,-0.18 -0.71,-0.59 a 1.22,1.22 0 0 1 0.71,0.59 z"
       id="path134" />
    <path
       class="cls-80"
       d="m 63.937214,19.263668 0.28,-0.16 0.45,-0.23 c 0,0 0.06,0.1 0,0.12 -0.09,0.19 -0.3,0.21 -0.45,0.3 a 0.33,0.33 0 0 1 -0.28,-0.03 z"
       id="path135" />
    <path
       class="cls-81"
       d="m 60.367214,24.083668 a 1.41,1.41 0 0 1 0.51,-0.28 c 0.18,0.22 0.49,0 0.67,0.18 a 3,3 0 0 0 -1,0.13 0.11,0.11 0 0 1 -0.14,0 z"
       id="path136" />
    <path
       class="cls-31"
       d="m 46.127214,67.883668 a 1.22,1.22 0 0 1 0.28,0.57 1.6,1.6 0 0 1 -0.38,-0.26 c -0.24,-0.21 -0.05,-0.24 0.1,-0.31 z"
       id="path137" />
    <path
       class="cls-82"
       d="m 43.157214,56.953668 c 0.15,0.28 0.06,0.59 0.16,0.88 0,0 0,0.09 -0.09,0.1 -0.15,-0.31 -0.06,-0.66 -0.17,-1 0.04,-0.02 0.1,-0.02 0.1,0.02 z"
       id="path138" />
    <path
       class="cls-83"
       d="m 54.667214,25.263668 c 0,-0.08 0,-0.18 -0.12,-0.22 a 1.15,1.15 0 0 1 0.59,-0.45 c -0.09,0.31 -0.45,0.38 -0.47,0.67 z"
       id="path139" />
    <path
       class="cls-57"
       d="m 102.28722,78.403668 h 0.32 c 0,0.26 0,0.26 -0.5,0.25 -0.05,-0.14 0.15,-0.13 0.18,-0.25 z"
       id="path140" />
    <path
       class="cls-36"
       d="m 60.207214,23.593668 a 0.51,0.51 0 0 1 -0.6,0 c -0.14,-0.1 0,-0.28 0.09,-0.4 -0.16,0.61 0.27,0.4 0.51,0.4 z"
       id="path141" />
    <path
       class="cls-7"
       d="m 49.677214,74.203668 a 2,2 0 0 1 0.38,0.48 c -0.2,0 -0.27,-0.19 -0.45,-0.25 -0.41,-0.18 0.19,-0.13 0.07,-0.23 z"
       id="path142" />
    <path
       class="cls-84"
       d="m 53.397214,29.273668 a 2.83,2.83 0 0 1 0.45,-0.32 c 0.18,-0.09 0.18,0 0.09,0.13 -0.09,0.13 -0.28,0.3 -0.51,0.28 a 0.07,0.07 0 0 1 0,-0.06 c 0,0 -0.04,-0.03 -0.03,-0.03 z"
       id="path143" />
    <path
       class="cls-85"
       d="m 42.667214,44.393668 a 0.89,0.89 0 0 1 0.2,-0.56 l 0.1,0.11 a 1.64,1.64 0 0 0 -0.21,0.68 h -0.15 c -0.08,-0.12 0,-0.18 0.06,-0.23 z"
       id="path144" />
    <path
       class="cls-86"
       d="m 63.767214,19.683668 h -0.42 a 1.18,1.18 0 0 1 0.22,-0.17 c 0.1,-0.05 0.19,-0.2 0.29,-0.1 0.1,0.1 -0.18,0.18 -0.09,0.27 z"
       id="path145" />
    <path
       class="cls-87"
       d="m 53.397214,29.273668 v 0.09 0 c -0.08,0.11 -0.14,0.24 -0.3,0.26 h -0.08 c -0.09,0 -0.14,0 -0.11,-0.1 l 0.25,-0.29 z"
       id="path146" />
    <path
       class="cls-17"
       d="m 111.60722,40.953668 v -1 a 1.14,1.14 0 0 1 0,1 z"
       id="path147" />
    <path
       class="cls-23"
       d="m 43.157214,50.733668 c 0.22,0.31 0.07,0.66 0.1,1 a 2,2 0 0 1 -0.1,-1 z"
       id="path148" />
    <path
       class="cls-88"
       d="m 45.247214,66.593668 a 0.44,0.44 0 0 1 -0.11,-0.36 c 0,-0.06 0.14,0 0.21,0 a 0.2,0.2 0 0 1 0.13,0.24 v 0 z"
       id="path149" />
    <path
       class="cls-89"
       d="m 43.237214,57.933668 0.09,-0.1 0.1,0.48 c -0.1,0.07 -0.06,0.2 -0.09,0.29 a 1.52,1.52 0 0 1 -0.1,-0.67 z"
       id="path150" />
    <path
       class="cls-90"
       d="m 43.157214,56.953668 h -0.09 l -0.09,-0.48 c 0.11,-0.08 0.07,-0.2 0.1,-0.3 a 1.88,1.88 0 0 1 0.08,0.78 z"
       id="path151" />
    <path
       class="cls-10"
       d="m 105.80722,70.693668 c 0.16,-0.17 0.39,-0.07 0.58,-0.13 a 0.45,0.45 0 0 1 -0.58,0.13 z"
       id="path152" />
    <path
       class="cls-91"
       d="m 70.657214,85.133668 0.45,0.1 c 0,0.25 -0.17,0.09 -0.27,0.11 h -0.38 z"
       id="path153" />
    <path
       class="cls-84"
       d="m 53.707214,29.593668 c 0,0.26 -0.19,0.39 -0.29,0.59 -0.14,-0.35 0.19,-0.43 0.29,-0.59 z"
       id="path154" />
    <path
       class="cls-92"
       d="m 58.007214,22.753668 v -0.16 a 0.42,0.42 0 0 1 0.4,-0.1 c -0.06,0.19 -0.3,0.1 -0.4,0.26 z"
       id="path155" />
    <path
       class="cls-93"
       d="m 42.477214,55.993668 v 0.45 a 0.5,0.5 0 0 1 -0.17,-0.52 c 0.1,-0.06 0.12,0.02 0.17,0.07 z"
       id="path156" />
    <path
       class="cls-94"
       d="m 101.65722,80.053668 v 0.29 c -0.11,0 0,-0.24 -0.26,-0.24 -0.26,0 0.09,-0.13 0.08,-0.23 h 0.1 a 0.19,0.19 0 0 1 0.08,0.18 z"
       id="path157" />
    <path
       class="cls-54"
       d="m 101.69722,27.593668 -0.31,-0.49 c 0.3,0.01 0.3,0.23 0.31,0.49 z"
       id="path158" />
    <path
       class="cls-54"
       d="m 101.50722,26.683668 c 0.08,-0.11 0.13,-0.25 0.31,-0.23 -0.15,0 0.03,0.45 -0.31,0.23 z"
       id="path159" />
    <path
       class="cls-95"
       d="m 67.777214,85.593668 0.19,-0.09 0.39,0.28 v 0 a 0.81,0.81 0 0 1 -0.58,-0.19 z"
       id="path160" />
    <path
       class="cls-96"
       d="m 60.367214,24.083668 h 0.15 l -0.5,0.26 -0.1,-0.09 a 1.08,1.08 0 0 1 0.45,-0.17 z"
       id="path161" />
    <path
       class="cls-97"
       d="m 108.96722,71.133668 c -0.06,0.13 -0.06,0.34 -0.29,0.2 l 0.21,-0.38 z"
       id="path162" />
    <path
       class="cls-98"
       d="m 96.437214,81.973668 c 0.06,0.13 0.19,0.06 0.29,0.1 a 0.54,0.54 0 0 1 -0.52,0.07 c 0.02,-0.14 0.11,-0.17 0.23,-0.17 z"
       id="path163" />
    <path
       class="cls-99"
       d="m 103.29722,79.163668 c 0,0.22 -0.06,0.33 -0.22,0.38 -0.07,-0.2 0.02,-0.27 0.22,-0.38 z"
       id="path164" />
    <path
       class="cls-100"
       d="m 72.967214,85.983668 a 0.19,0.19 0 0 1 0,-0.08 c 0.16,0 0.35,0.06 0.48,-0.1 0.08,0 0.24,0 0.08,0.13 -0.16,0.13 -0.38,0.06 -0.56,0.05 z"
       id="path165" />
    <path
       class="cls-31"
       d="m 46.157214,68.803668 c 0.12,0.17 0,0.29 -0.08,0.51 -0.05,-0.24 -0.09,-0.39 0.08,-0.51 z"
       id="path166" />
    <path
       class="cls-101"
       d="m 64.807214,23.803668 0.12,0.12 a 0.53,0.53 0 0 1 -0.52,0.15 z"
       id="path167" />
    <path
       class="cls-10"
       d="m 106.48722,70.463668 c 0,-0.29 0.11,-0.3 0.31,-0.15 a 0.26,0.26 0 0 1 -0.31,0.15 z"
       id="path168" />
    <path
       class="cls-102"
       d="m 45.477214,66.443668 -0.13,-0.24 v -0.24 l 0.2,0.37 z"
       id="path169" />
    <path
       class="cls-103"
       d="m 52.917214,29.593668 0.11,0.1 c -0.07,0.13 -0.14,0.26 -0.32,0.17 0,-0.18 0.11,-0.27 0.21,-0.27 z"
       id="path170" />
    <path
       class="cls-104"
       d="m 42.667214,44.393668 a 2.09,2.09 0 0 0 -0.06,0.2 c -0.19,-0.16 -0.11,-0.33 0,-0.5 0,0.11 0,0.23 0.06,0.3 z"
       id="path171" />
    <path
       class="cls-105"
       d="m 55.897214,79.833668 a 0.45,0.45 0 0 1 0.3,0.22 c 0,0.05 -0.07,0.06 -0.11,0.09 -0.04,0.03 -0.31,-0.09 -0.19,-0.31 z"
       id="path172" />
    <path
       class="cls-106"
       d="m 111.47722,60.143668 0.08,0.19 c 0,0.13 -0.12,0.25 -0.19,0.18 -0.07,-0.07 0.03,-0.27 0.11,-0.37 z"
       id="path173" />
    <path
       class="cls-107"
       d="m 42.507214,55.723668 v -0.25 a 0.64,0.64 0 0 1 0.19,0.45 z"
       id="path174" />
    <path
       class="cls-6"
       d="m 113.86722,37.593668 c 0,-0.1 -0.1,-0.19 0.08,-0.4 0,0.21 0.2,0.3 -0.08,0.4 z"
       id="path175" />
    <path
       class="cls-108"
       d="m 58.287214,81.023668 c 0.16,0 0.2,0.14 0.21,0.28 a 0.35,0.35 0 0 1 -0.31,-0.18 z"
       id="path176" />
    <path
       class="cls-109"
       d="m 97.387214,19.883668 c -0.11,0 -0.23,-0.1 -0.16,-0.22 0.07,-0.12 0.22,0 0.34,0 v 0.07 c -0.06,0.06 -0.14,0.06 -0.18,0.15 z"
       id="path177" />
    <path
       class="cls-110"
       d="m 49.867214,31.133668 c 0.1,0.22 -0.1,0.27 -0.2,0.38 -0.06,-0.21 0.11,-0.26 0.2,-0.38 z"
       id="path178" />
    <path
       class="cls-84"
       d="m 53.107214,29.593668 0.3,-0.25 c -0.04,0.18 -0.04,0.37 -0.3,0.25 z"
       id="path179" />
    <path
       class="cls-111"
       d="m 49.607214,31.593668 -0.24,0.4 c -0.05,0 -0.06,-0.07 -0.09,-0.1 -0.03,-0.03 0.15,-0.3 0.33,-0.3 z"
       id="path180" />
    <path
       class="cls-112"
       d="m 49.297214,31.863668 0.09,0.1 -0.18,0.29 -0.1,-0.1 z"
       id="path181" />
    <path
       class="cls-113"
       d="m 116.60722,44.803668 -0.1,0.1 a 0.31,0.31 0 0 1 -0.06,-0.34 l 0.16,0.03 z"
       id="path182" />
    <path
       class="cls-114"
       d="m 51.177214,55.413668 c 0,-0.08 0,-0.24 0,-0.23 0,0.01 0.14,0.21 0.17,0.34 z"
       id="path183" />
    <path
       class="cls-115"
       d="m 116.28722,43.593668 -0.09,0.14 -0.12,-0.23 c 0,-0.07 0,-0.18 0.11,-0.22 h 0.07 z"
       id="path184" />
    <path
       class="cls-116"
       d="m 56.087214,80.143668 0.11,-0.09 c 0.06,0.1 0.37,0.06 0.18,0.31 z"
       id="path185" />
    <path
       class="cls-117"
       d="m 98.157214,77.083668 0.12,0.12 c -0.06,0.07 -0.13,0.18 -0.22,0.09 -0.09,-0.09 0.04,-0.15 0.1,-0.21 z"
       id="path186" />
    <path
       class="cls-118"
       d="m 42.477214,55.993668 -0.17,-0.09 v -0.19 h 0.17 z"
       id="path187" />
    <path
       class="cls-119"
       d="m 76.907214,51.073668 a 5.48,5.48 0 0 1 0.55,-3.08 1.46,1.46 0 0 1 0.79,-0.81 10.73,10.73 0 0 1 1.16,-0.45 c 0.38,-0.1 0.8,-0.15 1,0.31 0.12,0.23 0.38,0.11 0.57,0.29 a 6.24,6.24 0 0 1 1.63,2.7 42.41,42.41 0 0 1 1.49,8.29 12,12 0 0 1 -0.19,2.32 c 0,0.25 0,0.51 -0.07,0.76 a 0.89,0.89 0 0 1 -0.35,0.62 7.38,7.38 0 0 1 -0.76,0.82 2.25,2.25 0 0 1 -3.12,-0.41 9.84,9.84 0 0 1 -1.83,-4.47 q -0.39,-2 -0.72,-4 a 15,15 0 0 1 -0.15,-2.89 z"
       id="path188" />
    <path
       class="cls-119"
       d="m 56.387214,54.253668 a 4.83,4.83 0 0 1 0.45,-2.51 1.31,1.31 0 0 1 1.82,-0.42 1.33,1.33 0 0 1 0.19,0.14 6.25,6.25 0 0 1 1.35,3.42 c 0.52,2.33 1,4.66 1.55,7 a 4.51,4.51 0 0 1 0,2.25 c -0.37,1.23 -1.31,1.49 -2.25,0.6 a 7.17,7.17 0 0 1 -1.68,-2.8 25.21,25.21 0 0 1 -1.38,-6.34 9,9 0 0 1 -0.05,-1.34 z"
       id="path189" />
    <path
       class="cls-119"
       d="m 103.80722,53.913668 a 10,10 0 0 1 -0.29,2.73 2.7,2.7 0 0 1 -0.73,1.32 1,1 0 0 1 -1.47,0.13 0.76,0.76 0 0 1 -0.19,-0.21 3.43,3.43 0 0 1 -0.76,-1.73 c -0.450006,-2.31 -0.740006,-4.64 -1.000006,-7 a 19.1,19.1 0 0 1 -0.18,-2.14 10.89,10.89 0 0 1 0.12,-1.8 1.79,1.79 0 0 1 1.000006,-1.25 0.83,0.83 0 0 1 1,0.24 5.27,5.27 0 0 1 1.52,2.55 25.43,25.43 0 0 1 0.98,7.16 z"
       id="path190" />
    <path
       class="cls-119"
       d="m 84.107214,31.083668 a 4.76,4.76 0 0 1 0.08,-1.25 2,2 0 0 1 2.79,-1.35 3.69,3.69 0 0 1 1.56,1.52 14.7,14.7 0 0 1 1.62,4.5 10.24,10.24 0 0 1 0.3,1.92 3.12,3.12 0 0 1 -0.85,2.43 1.36,1.36 0 0 1 -1.22,0.42 3,3 0 0 1 -2,-1.15 c -1.53,-2.07 -1.93,-4.53 -2.28,-7.04 z"
       id="path191" />
    <path
       class="cls-119"
       d="m 76.067214,76.593668 a 3,3 0 0 1 0,0.63 1.35,1.35 0 0 1 -1.41,1.37 1.65,1.65 0 0 1 -0.32,0 3.85,3.85 0 0 1 -2.73,-2 15.54,15.54 0 0 1 -2,-5.91 1.61,1.61 0 0 1 2.17,-1.8 3.55,3.55 0 0 1 2.23,1.71 20.13,20.13 0 0 1 1.95,5.27 7,7 0 0 1 0.11,0.73 z"
       id="path192" />
    <path
       class="cls-119"
       d="m 90.877214,71.193668 a 20.21,20.21 0 0 1 0.27,-3.47 3.79,3.79 0 0 1 0.7,-1.71 2.38,2.38 0 0 1 1.92,-1 1.71,1.71 0 0 1 1.48,1.12 6.26,6.26 0 0 1 0.48,2.25 12.41,12.41 0 0 1 -0.76,5.4 2.6,2.6 0 0 1 -2.25,1.81 1.13,1.13 0 0 1 -1.35,-0.73 6,6 0 0 1 -0.47,-2.27 c -0.04,-0.47 -0.02,-0.94 -0.02,-1.4 z"
       id="path193" />
    <path
       class="cls-119"
       d="m 59.327214,37.983668 a 34,34 0 0 1 -0.55,6.75 4.46,4.46 0 0 1 -0.69,1.56 1.12,1.12 0 0 1 -2.08,-0.16 5.75,5.75 0 0 1 -0.56,-2.11 18.32,18.32 0 0 1 0.64,-7.14 7.15,7.15 0 0 1 0.57,-1.29 1.79,1.79 0 0 1 1.6,-1 0.71,0.71 0 0 1 0.65,0.5 7,7 0 0 1 0.41,2.48 1,1 0 0 1 0.01,0.41 z"
       id="path194" />
    <path
       class="cls-119"
       d="m 100.37722,38.153668 a 2.52,2.52 0 0 1 -0.13,0.9 1.16,1.16 0 0 1 -1.410006,0.86 1.12,1.12 0 0 1 -0.6,-0.35 6.51,6.51 0 0 1 -1.58,-2.14 52.48,52.48 0 0 1 -2.37,-5.89 9.27,9.27 0 0 1 -0.3,-2.22 0.64,0.64 0 0 1 0.55,-0.64 1.9,1.9 0 0 1 1.55,0.3 5.7,5.7 0 0 1 2,2.38 21.67,21.67 0 0 1 2.200006,6 c 0.05,0.3 0.06,0.54 0.09,0.8 z"
       id="path195" />
    <path
       class="cls-119"
       d="m 66.227214,78.343668 a 2.24,2.24 0 0 1 -1.47,-0.69 13.16,13.16 0 0 1 -3.15,-4.88 7.17,7.17 0 0 1 -0.68,-2.7 c 0,-1 0.57,-1.42 1.53,-1.06 a 2.76,2.76 0 0 1 1.18,0.87 18.6,18.6 0 0 1 3.57,7.27 c 0.15,0.84 -0.16,1.19 -0.98,1.19 z"
       id="path196" />
    <path
       class="cls-119"
       d="m 45.947214,53.443668 c -0.07,0.63 -0.16,1.26 -0.2,1.9 a 24.76,24.76 0 0 0 0.54,4.2 14.58,14.58 0 0 0 2,5.4 8.81,8.81 0 0 0 0.62,0.85 c 0,0.06 -0.26,0.14 0,0.19 0.26,0.05 0.37,0.15 0.13,0.37 a 0.6,0.6 0 0 0 -0.13,0.48 4,4 0 0 0 0.15,1.46 c 0,0.11 0.07,0.3 0,0.28 -0.24,-0.1 -0.42,0.27 -0.62,0.06 a 1.27,1.27 0 0 1 -0.38,-1.26 c 0.06,-0.2 -0.11,-0.37 0,-0.59 -0.31,0.37 -0.51,-0.06 -0.74,0 v -0.09 a 8,8 0 0 0 0,-1 c 0,-0.2 0,-0.53 -0.41,-0.48 -0.21,0 -0.26,-0.32 -0.32,-0.52 -0.06,-0.2 -0.06,-0.34 -0.22,-0.45 -0.16,-0.11 -0.24,-0.36 -0.28,-0.56 -0.34,-1.47 -0.63,-3 -0.94,-4.43 -0.31,-1.43 -0.68,-3.15 -1,-4.72 a 2.11,2.11 0 0 1 -0.06,-0.61 0.33,0.33 0 0 1 0.09,-0.23 c 0.16,-0.08 0,-0.22 0,-0.34 0,-0.12 -0.21,-0.62 0.33,-0.64 a 0.34,0.34 0 0 0 0.17,-0.36 c -0.12,0 -0.15,0.21 -0.32,0.13 l 0.08,-0.53 a 0.37,0.37 0 0 0 0.52,0.15 v 0 c 0.16,-0.09 0,-0.22 0,-0.35 a 0.41,0.41 0 0 1 0.29,-0.45 v 0 c 0,0.37 0.34,0.5 0.45,0.79 a 1.18,1.18 0 0 1 0.05,1 c 0.11,0.11 0.17,0.24 0.2,0.35 z"
       id="path197" />
    <path
       class="cls-120"
       d="m 44.197214,53.913668 q 1.08,5.13 2.15,10.26 c 0,0 0,0.05 0,0.07 0,0.19 0.07,0.38 0.09,0.57 0.02,0.19 0.13,0.31 -0.08,0.35 -0.21,0.04 -0.16,-0.16 -0.18,-0.28 -0.23,-0.92 -0.45,-1.85 -0.67,-2.77 -0.19,-0.73 -0.31,-1.49 -0.57,-2.2 v 0 c -0.14,-1 -0.45,-1.87 -0.64,-2.8 0,-0.11 0,-0.22 -0.05,-0.33 -0.22,-0.1 -0.09,0.15 -0.17,0.18 0,0.25 0,0.72 -0.2,0.69 -0.33,-0.06 -0.11,-0.45 -0.13,-0.7 a 21.5,21.5 0 0 1 0.24,-2.87 c 0.12,-0.03 0.02,-0.24 0.21,-0.17 z"
       id="path198" />
    <path
       class="cls-121"
       d="m 47.357214,66.673668 a 0.03,0 -90 0 0 0,0.06 l 1.53,3.53 c 0,0.11 0,0.15 -0.13,0.12 a 6.18,6.18 0 0 1 -1,-2 c -0.28,0.14 -0.15,0.4 -0.32,0.56 -0.6,-0.45 -0.57,-1.14 -0.57,-1.8 0.21,-0.33 0,-0.63 -0.08,-0.94 0,-0.14 -0.16,-0.34 0.07,-0.4 0.23,-0.06 0.26,0.13 0.29,0.3 a 1.16,1.16 0 0 0 0.21,0.57 z"
       id="path199" />
    <path
       class="cls-122"
       d="m 45.657214,37.823668 c 0.35,-0.21 0,-0.65 0.3,-0.9 q 0.12,0 0.15,0.09 a 0.68,0.68 0 0 1 -0.1,0.72 c -0.23,0.28 -0.13,0.69 -0.26,1 a 13.37,13.37 0 0 0 -0.51,1.9 c -0.07,0.21 -0.14,0.43 -0.39,0.5 0.12,-1.07 0.53,-2.06 0.73,-3.1 a 0.18,0.18 0 0 1 0.08,-0.21 z"
       id="path200" />
    <path
       class="cls-119"
       d="m 44.847214,62.123668 a 2.37,2.37 0 0 1 -0.63,-1.83 c 0.23,0.24 0.24,0.24 0.49,0 0.09,-0.07 0.15,0 0.2,0.06 0.25,0.22 0.38,0.61 0.21,0.79 a 1.1,1.1 0 0 0 -0.27,0.98 z"
       id="path201" />
    <path
       class="cls-119"
       d="m 44.777214,49.093668 c 0.57,-0.09 0.45,0.45 0.45,0.65 0,0.2 0.25,0.7 -0.19,0.9 a 0.22,0.22 0 0 1 -0.26,0 c -0.07,-0.07 0.07,-0.13 0.1,-0.19 0.14,-0.39 0.45,-0.78 -0.07,-1.14 0,0 0,-0.15 0,-0.23 z"
       id="path202" />
    <path
       class="cls-119"
       d="m 44.607214,63.293668 c -0.11,-0.11 0,-0.24 0,-0.37 0.45,0.19 0.21,-0.15 0.23,-0.3 0.48,0.2 0.67,0.54 0.45,0.79 -0.22,0.25 -0.33,0.21 -0.31,0 -0.02,-0.52 -0.26,-0.12 -0.37,-0.12 z"
       id="path203" />
    <path
       class="cls-119"
       d="m 43.427214,57.053668 c 0.15,0.16 0.26,0.28 0.15,0.45 -0.11,0.17 -0.1,0.06 -0.12,0 -0.02,-0.06 -0.12,-0.24 -0.03,-0.45 z"
       id="path204" />
    <path
       class="cls-119"
       d="m 44.477214,58.503668 c 0,0.15 -0.07,0.28 -0.12,0.45 a 0.11,0.11 0 0 1 -0.18,0.08 c -0.08,-0.07 -0.07,-0.24 0,-0.23 0.26,0.04 0.08,-0.34 0.3,-0.3 z"
       id="path205" />
    <path
       class="cls-119"
       d="m 44.397214,59.593668 a 0.31,0.31 0 0 1 -0.35,-0.29 c 0,0 0.08,-0.1 0.08,-0.1 a 0.6,0.6 0 0 1 0.27,0.39 z"
       id="path206" />
    <path
       class="cls-119"
       d="m 44.677214,51.373668 c 0,-0.13 0,-0.23 0.11,-0.31 0.11,-0.08 0,0 0.06,0 0.06,0 0,0.28 -0.17,0.31 z"
       id="path207" />
    <path
       class="cls-119"
       d="m 45.357214,51.313668 v 0 c 0,-0.13 -0.26,-0.17 -0.1,-0.35 h 0.08 c 0.09,0.13 0.2,0.26 0,0.41 z"
       id="path208" />
    <path
       class="cls-119"
       d="m 43.807214,58.463668 c -0.22,0 -0.25,-0.12 -0.27,-0.36 z"
       id="path209" />
    <path
       class="cls-119"
       d="m 45.657214,51.303668 0.09,0.19 c 0,0.06 0,0.19 -0.12,0.1 -0.12,-0.09 -0.1,-0.2 0.03,-0.29 z"
       id="path210" />
    <path
       class="cls-123"
       d="m 44.197214,53.913668 -0.16,0.18 c 0,-0.13 -0.22,-0.41 0.17,-0.39 z"
       id="path211" />
    <path
       class="cls-69"
       d="m 44.127214,56.973668 c 0,-0.12 -0.07,-0.28 0.07,-0.34 0.14,-0.06 0.1,0.08 0.1,0.16 z"
       id="path212" />
    <path
       class="cls-124"
       d="m 46.107214,37.033668 -0.15,-0.09 0.17,-0.3 0.07,0.1 z"
       id="path213" />
    <path
       class="cls-119"
       d="m 45.187214,61.493668 c 0.12,0.12 0.19,0.21 0.14,0.37 a 0.38,0.38 0 0 1 -0.14,-0.37 z"
       id="path214" />
    <path
       class="cls-119"
       d="m 45.657214,37.823668 -0.08,0.18 h -0.12 c 0.02,-0.12 0,-0.29 0.2,-0.18 z"
       id="path215" />
    <path
       class="cls-119"
       d="m 45.067214,62.253668 a 0.08,0.08 0 0 1 -0.09,-0.07 c 0,-0.05 0,-0.13 0.05,-0.16 0.05,-0.03 0,0 0.06,0.07 0.06,0.07 0.06,0.12 -0.02,0.16 z"
       id="path216" />
    <path
       class="cls-119"
       d="m 45.007214,47.593668 c 0.1,0.12 0.05,0.22 0.07,0.4 a 0.41,0.41 0 0 1 -0.07,-0.4 z"
       id="path217" />
    <path
       class="cls-119"
       d="m 44.607214,62.063668 a 0.19,0.19 0 0 1 -0.11,-0.22 h 0.08 a 0.15,0.15 0 0 1 0,0.21 z"
       id="path218" />
    <path
       class="cls-119"
       d="m 44.987214,59.913668 c 0,0.07 0,0.21 0,0.21 0,0 -0.13,-0.09 -0.13,-0.16 0,-0.07 0.12,0 0.17,0 z"
       id="path219" />
    <path
       class="cls-119"
       d="m 77.377214,24.153668 a 3.09,3.09 0 0 1 -0.15,1.13 1.68,1.68 0 0 1 -1.46,1.31 c -1.5,0.21 -2,0 -2.66,-1.43 a 4.55,4.55 0 0 1 -0.45,-2.64 2.31,2.31 0 0 1 2,-2 2,2 0 0 1 2.11,1.26 5,5 0 0 1 0.61,2.37 z"
       id="path220" />
    <path
       class="cls-32"
       d="m 48.787214,70.383668 0.13,-0.12 a 1.76,1.76 0 0 1 0.41,0.63 19.34,19.34 0 0 0 1.39,2.37 1.21,1.21 0 0 1 0.3,0.74 c 0,0.1 0,0.12 -0.1,0.11 a 2.21,2.21 0 0 1 -0.56,-0.76 c -0.32,-0.64 -0.75,-1.22 -1.09,-1.85 a 3.72,3.72 0 0 1 -0.48,-1.12 z"
       id="path221" />
    <path
       class="cls-125"
       d="m 53.287214,75.273668 a 0.29,0.29 0 0 0 0.14,-0.23 2.45,2.45 0 0 1 1,0.79 c -0.18,0 -0.42,0 -0.09,0.23 v 0.17 a 3.85,3.85 0 0 1 -1.05,-0.96 z"
       id="path222" />
    <path
       class="cls-126"
       d="m 50.917214,74.093668 0.1,-0.11 c 0.32,0.3 0.7,0.56 0.77,1.07 -0.53,-0.11 -0.56,-0.66 -0.87,-0.96 z"
       id="path223" />
    <path
       class="cls-127"
       d="m 47.657214,70.383668 -0.05,0.21 c -0.19,-0.25 -0.16,-0.58 -0.3,-0.86 h 0.12 a 2.05,2.05 0 0 1 0.23,0.65 z"
       id="path224" />
    <path
       class="cls-119"
       d="m 46.837214,68.273668 c -0.14,-0.1 -0.22,-0.2 -0.16,-0.27 0.06,-0.07 0.11,0 0.13,0.09 a 0.57,0.57 0 0 1 0.03,0.18 z"
       id="path225" />
    <path
       class="cls-21"
       d="m 116.18722,43.233668 -0.11,0.22 -0.24,-0.3 c 0,0.71 0.27,1.3 0,1.88 a 1,1 0 0 1 -0.15,-0.82 2.29,2.29 0 0 0 -0.13,-1.13 c -0.07,-0.26 -0.16,-0.66 0.12,-0.74 0.28,-0.08 0.37,0.31 0.45,0.57 a 1.65,1.65 0 0 1 0.06,0.32 z"
       id="path226" />
    <path
       class="cls-128"
       d="m 115.96722,46.243668 c -0.19,-0.32 0,-0.68 -0.13,-1 a 2.29,2.29 0 0 1 0.22,0.9 c -0.03,0.05 -0.04,0.09 -0.09,0.1 z"
       id="path227" />
    <path
       class="cls-129"
       d="m 115.96722,46.243668 0.09,-0.1 a 2.47,2.47 0 0 1 0.1,0.67 l -0.1,0.21 a 2.06,2.06 0 0 1 -0.09,-0.78 z"
       id="path228" />
    <path
       class="cls-119"
       d="m 116.60722,48.363668 a 0.47,0.47 0 0 1 0.14,0.53 c -0.14,-0.14 -0.08,-0.3 -0.14,-0.53 z"
       id="path229" />
    <path
       class="cls-119"
       d="m 116.89722,49.873668 a 1.63,1.63 0 0 1 0,0.76 1.4,1.4 0 0 1 0,-0.76 z"
       id="path230" />
    <path
       class="cls-119"
       d="m 113.60722,45.593668 v 0.59 c 0,-0.27 -0.16,-0.4 0,-0.59 z"
       id="path231" />
    <path
       class="cls-119"
       d="m 116.43722,47.163668 c 0,-0.07 -0.07,-0.11 -0.06,-0.14 a 1.19,1.19 0 0 1 0.09,-0.15 c 0,0 0.07,0.07 0.07,0.1 a 1.14,1.14 0 0 1 -0.1,0.19 z"
       id="path232" />
    <path
       class="cls-119"
       d="m 116.72722,47.753668 c -0.05,0 -0.08,0.08 -0.11,0.08 -0.03,0 -0.1,0 -0.11,0 a 0.1,0.1 0 0 1 0.09,-0.11 z"
       id="path233" />
    <path
       class="cls-130"
       d="m 116.08722,47.383668 c 0.14,0.15 0.07,0.33 0.07,0.5 a 0.79,0.79 0 0 1 -0.07,-0.5 z"
       id="path234" />
    <path
       class="cls-119"
       d="m 109.39722,61.773668 a 18.44,18.44 0 0 1 -1.48,6.47 3.56,3.56 0 0 1 -0.62,1 0.7,0.7 0 0 1 -0.71,0.28 c -0.3,-0.09 -0.33,-0.38 -0.36,-0.63 a 10,10 0 0 1 0.07,-2.25 40.41,40.41 0 0 1 1,-5.34 2.41,2.41 0 0 1 1.06,-1.59 c 0.47,-0.29 0.62,-0.21 0.77,0.3 a 5,5 0 0 1 0.27,1.76 z"
       id="path235" />
    <path
       class="cls-119"
       d="m 56.957214,30.683668 a 9.56,9.56 0 0 1 1.75,-4.77 4.42,4.42 0 0 1 1.35,-1.12 c 0.56,-0.3 0.9,-0.13 0.9,0.49 a 7.81,7.81 0 0 1 -0.35,2.58 c -0.33,0.81 -0.59,1.66 -1,2.45 a 2.86,2.86 0 0 1 -1.25,1.41 c -0.83,0.44 -1.43,0.08 -1.4,-1.04 z"
       id="path236" />
    <path
       class="cls-119"
       d="m 46.377214,56.343668 a 4.64,4.64 0 0 1 0.16,-2.17 c 0.15,-0.31 0.3,-0.27 0.5,-0.12 a 1.88,1.88 0 0 1 0.62,1.09 c 0.39,1.3 0.51,2.66 0.85,4 a 35.22,35.22 0 0 1 1,5.08 c 0,0.42 -0.12,0.45 -0.41,0.33 a 2,2 0 0 1 -1,-1 14.26,14.26 0 0 1 -1.25,-3.82 14,14 0 0 1 -0.47,-3.39 z"
       id="path237" />
    <path
       class="cls-119"
       d="m 89.537214,19.983668 a 3.69,3.69 0 0 1 2.21,1 14.08,14.08 0 0 1 2.44,3.11 3.41,3.41 0 0 1 0.42,1.3 0.45,0.45 0 0 1 -0.34,0.53 h -0.11 a 2.72,2.72 0 0 1 -1.85,-0.51 4.88,4.88 0 0 1 -1.76,-1.82 c -0.39,-0.67 -0.93,-1.28 -1.32,-2 a 5.64,5.64 0 0 1 -0.41,-0.86 c -0.21,-0.5 0.04,-0.76 0.72,-0.75 z"
       id="path238" />
    <path
       class="cls-119"
       d="m 113.60722,51.423668 a 10.59,10.59 0 0 1 -0.17,1.5 2,2 0 0 1 -0.4,0.86 c -0.14,0.16 -0.31,0.33 -0.52,0.28 -0.21,-0.05 -0.16,-0.31 -0.2,-0.48 a 42.6,42.6 0 0 1 -0.9,-6.75 c -0.06,-0.82 -0.29,-1.63 -0.28,-2.46 a 3,3 0 0 1 0,-0.52 c 0.06,-0.29 0.17,-0.58 0.49,-0.65 0.32,-0.07 0.33,0.26 0.45,0.42 a 7,7 0 0 1 1,2.82 24.6,24.6 0 0 1 0.53,4.98 z"
       id="path239" />
    <path
       class="cls-119"
       d="m 91.607214,82.743668 c -0.29,0 -0.53,0.26 -0.84,0.16 a 0.68,0.68 0 0 1 -0.13,-0.5 c 0.08,-0.9 0.15,-1.8 0.22,-2.7 0,-0.37 0.3,-0.58 0.52,-0.83 a 3.83,3.83 0 0 1 1.37,-1.16 2.52,2.52 0 0 1 1.76,0.32 c 0.12,0.12 0.08,0.27 0.06,0.41 -0.1,0.72 -0.19,1.45 -0.3,2.17 a 5.37,5.37 0 0 1 -0.33,0.78 c -0.27,0.84 -1,0.85 -1.61,1.09 -0.21,0.11 -0.45,0.16 -0.72,0.26 z"
       id="path240" />
    <path
       class="cls-119"
       d="m 45.697214,47.593668 a 20.26,20.26 0 0 1 0.63,-5.31 3.72,3.72 0 0 1 0.63,-1.35 c 0.13,-0.16 0.29,-0.38 0.49,-0.33 0.2,0.05 0.18,0.34 0.2,0.53 a 17.1,17.1 0 0 1 0,3.2 c -0.12,1.55 -0.29,3.08 -0.45,4.62 a 5,5 0 0 1 -0.33,1.43 c -0.06,0.15 -0.14,0.31 -0.32,0.33 a 0.48,0.48 0 0 1 -0.4,-0.29 2.72,2.72 0 0 1 -0.34,-1.28 11.11,11.11 0 0 1 -0.11,-1.55 z"
       id="path241" />
    <path
       class="cls-119"
       d="m 67.477214,80.343668 a 2.14,2.14 0 0 1 1,0.28 5.4,5.4 0 0 1 2.13,1.72 13.23,13.23 0 0 1 1.31,1.83 0.58,0.58 0 0 1 0,0.57 c -0.14,0.23 -0.34,0.09 -0.51,0.06 l -1.47,-0.21 a 2,2 0 0 1 -1.25,-0.75 11.52,11.52 0 0 1 -1.69,-1.93 c -0.09,-0.15 -0.19,-0.29 -0.27,-0.45 -0.36,-0.76 -0.12,-1.11 0.75,-1.12 z"
       id="path242" />
    <path
       class="cls-131"
       d="m 70.847214,85.343668 c 0.09,0 0.21,0 0.27,-0.1 l 0.41,0.09 a 0.66,0.66 0 0 1 -0.68,0.01 z"
       id="path243" />
    <path
       class="cls-119"
       d="m 110.91722,39.323668 c -0.07,0.22 0.13,0.53 -0.11,0.62 -0.24,0.09 -0.51,-0.12 -0.7,-0.31 a 6.32,6.32 0 0 1 -1.29,-2.25 c -0.6,-1.62 -1.35,-3.17 -1.95,-4.78 -0.14,-0.39 -0.26,-0.79 -0.36,-1.19 0,-0.19 -0.11,-0.45 0.13,-0.56 0.24,-0.11 0.4,0 0.56,0.17 a 6.18,6.18 0 0 1 1.15,1.4 17.74,17.74 0 0 1 2.5,6.26 4.64,4.64 0 0 1 0.07,0.64 z"
       id="path244" />
    <path
       class="cls-132"
       d="m 54.467214,75.833668 a 4.68,4.68 0 0 1 -1,-0.79 21.15,21.15 0 0 1 -3.48,-6.35 c -0.11,-0.33 -0.38,-0.77 0,-1 0.38,-0.23 0.6,0.23 0.9,0.4 a 1.17,1.17 0 0 1 0.45,0.6 q 1.64,3.33 3.29,6.64 c 0.05,0.11 0.13,0.21 0.19,0.32 0.07,0.32 -0.11,0.25 -0.29,0.18 z"
       id="path245" />
    <path
       class="cls-125"
       d="m 54.467214,75.823668 c 0.12,0 0.32,0.09 0.29,-0.18 0.08,0.07 0.12,0.16 0,0.23 a 0.2,0.2 0 0 1 -0.28,0 z"
       id="path246" />
    <path
       class="cls-133"
       d="m 105.51722,75.523668 -0.74,1.07 a 1.43,1.43 0 0 1 -1.1,0.94 c -0.25,0 -0.5,0 -0.61,-0.25 a 0.46,0.46 0 0 1 0.23,-0.57 c 0.16,-0.1 0.17,-0.26 0.22,-0.4 a 11.75,11.75 0 0 1 2.17,-4 3,3 0 0 1 0.78,-0.63 c 0.35,-0.17 0.54,0 0.48,0.34 a 6,6 0 0 1 -0.27,1 16.1,16.1 0 0 1 -1.16,2.5 z"
       id="path247" />
    <path
       class="cls-37"
       d="m 103.67722,77.593668 a 4,4 0 0 0 1.1,-0.94 l 0.09,0.11 a 7.78,7.78 0 0 1 -1,1.27 c -0.03,-0.2 0.09,-0.44 -0.19,-0.44 z"
       id="path248" />
    <path
       class="cls-134"
       d="m 50.147214,30.793668 0.1,0.11 -0.25,0.2 c -0.05,-0.18 0.05,-0.24 0.15,-0.31 z"
       id="path249" />
    <path
       class="cls-7"
       d="m 111.18722,33.393668 a 24.85,24.85 0 0 1 1.8,4.05 c 0.21,0.83 0.49,1.65 0.63,2.5 a 1.57,1.57 0 0 1 0,0.23 c 0,0.12 0.06,0.27 -0.11,0.32 -0.17,0.05 -0.25,-0.09 -0.31,-0.22 l -1.23,-3 -2.15,-5.07 c 0.72,0.18 0.99,0.75 1.37,1.19 z"
       id="path250" />
    <path
       class="cls-6"
       d="m 100.60722,22.593668 a 10.78,10.78 0 0 1 3.15,2.58 24.38,24.38 0 0 1 1.63,2.29 c 0.17,0.32 0.48,0.72 0.19,1 -0.29,0.28 -0.53,-0.23 -0.76,-0.45 a 24.93,24.93 0 0 1 -4.17,-4.88 c -0.04,-0.15 -0.38,-0.33 -0.04,-0.54 z"
       id="path251" />
    <path
       class="cls-132"
       d="m 43.447214,51.213668 a 23.16,23.16 0 0 1 0.37,-6.62 5.94,5.94 0 0 1 0.5,-1.49 c 0.2,-0.17 0.28,-0.15 0.29,0.13 0,1.58 0,3.15 -0.15,4.73 a 24.26,24.26 0 0 1 -0.33,2.94 2.71,2.71 0 0 1 -0.09,0.41 c -0.07,0.19 0,0.49 -0.32,0.45 -0.32,-0.04 -0.27,-0.33 -0.27,-0.55 z"
       id="path252" />
    <path
       class="cls-18"
       d="m 114.99722,61.243668 -0.54,1.86 c -0.15,0.19 -0.22,0.57 -0.49,0.49 -0.27,-0.08 -0.12,-0.45 -0.09,-0.65 0.25,-1.69 0.53,-3.37 0.83,-5.05 0.11,-0.69 0.28,-1.35 0.41,-2.06 0,-0.19 0.08,-0.39 0.28,-0.38 0.2,0.01 0.17,0.27 0.18,0.42 a 15.79,15.79 0 0 1 -0.21,3.15 c 0,0.24 0,0.48 -0.05,0.71 a 10.71,10.71 0 0 1 -0.14,1.12 c -0.07,0.12 -0.02,0.29 -0.18,0.39 z"
       id="path253" />
    <path
       class="cls-135"
       d="m 115.09722,60.863668 a 4,4 0 0 1 0.2,-1.14 c 0,0.13 0,0.28 0.09,0.39 l -0.19,0.87 c -0.1,0 -0.14,-0.02 -0.1,-0.12 z"
       id="path254" />
    <path
       class="cls-55"
       d="m 116.47722,56.213668 c 0,0.08 -0.08,0.21 -0.16,0.05 a 1.49,1.49 0 0 1 0,-0.36 0.21,0.21 0 0 1 0.09,-0.19 2,2 0 0 0 0.3,-1.14 c 0,-0.06 0.06,-0.15 0.17,-0.09 a 7.26,7.26 0 0 1 -0.2,3 c -0.25,-0.23 -0.09,-0.51 -0.09,-0.77 v -0.32 a 0.3,0.3 0 0 0 0,-0.26 z"
       id="path255" />
    <path
       class="cls-119"
       d="m 115.89722,58.823668 c -0.09,-0.56 0.14,-1.13 0.1,-1.71 0,-0.17 0.18,-0.17 0.36,-0.17 -0.2,0.65 -0.07,1.33 -0.46,1.88 z"
       id="path256" />
    <path
       class="cls-119"
       d="m 116.44722,54.093668 c 0.2,0.49 0,0.82 0,1.17 -0.63,0 -0.3,-0.62 -0.59,-0.86 0.25,-0.03 0.65,0.43 0.59,-0.31 z"
       id="path257" />
    <path
       class="cls-136"
       d="m 116.53722,56.753668 c 0.07,0.25 -0.08,0.53 0.09,0.77 a 0.61,0.61 0 0 1 -0.16,0.45 3.14,3.14 0 0 1 0.07,-1.22 z"
       id="path258" />
    <path
       class="cls-137"
       d="m 116.82722,54.483668 -0.17,0.09 a 0.39,0.39 0 0 1 0.11,-0.42 c 0.11,0.1 0.06,0.22 0.06,0.33 z"
       id="path259" />
    <path
       class="cls-138"
       d="m 115.09722,60.863668 0.1,0.12 -0.1,0.38 -0.09,-0.11 a 0.53,0.53 0 0 1 0.09,-0.39 z"
       id="path260" />
    <path
       class="cls-119"
       d="m 116.35722,55.713668 -0.09,0.19 c -0.1,0 -0.2,0.08 -0.2,-0.09 0.11,0 0.15,-0.22 0.29,-0.1 z"
       id="path261" />
    <path
       class="cls-119"
       d="m 116.05722,55.823668 c -0.13,-0.18 -0.1,-0.3 0.06,-0.53 z"
       id="path262" />
    <path
       class="cls-139"
       d="m 116.47722,56.213668 a 0.32,0.32 0 0 1 0.14,-0.25 0.41,0.41 0 0 1 -0.06,0.45 z"
       id="path263" />
    <path
       class="cls-140"
       d="m 101.65722,80.053668 -0.13,-0.19 0.37,-0.3 0.1,0.11 c 0,0.21 -0.25,0.17 -0.29,0.33 a 0.12,0.12 0 0 1 -0.05,0.05 z"
       id="path264" />
    <path
       class="cls-141"
       d="m 101.69722,80.003668 c 0,-0.2 0.22,-0.2 0.29,-0.33 l 0.17,-0.08 c 0.03,0.35 -0.3,0.28 -0.46,0.41 z"
       id="path265" />
  </g>
</svg>
