<svg class="svg-icon" style="width: 1em; height: 1em;vertical-align: middle;fill: currentColor;overflow: hidden;" viewBox="0 0 1024 1024" version="1.1" xmlns="http://www.w3.org/2000/svg"><path d="M448.726 608.334L74.462 291.378h663.306a151.168 151.168 0 0 0 20.004 55.292L448.726 608.334zM332.59 574.374L31.948 830.584V319.834z" fill="#DFDFDF" /><path d="M527.07 606.368l296.462 252.82H74.118L370.58 606.614l62.272 52.688 15.874 13.416 0.05-0.046 15.826-13.37zM865.504 419.066v411.322L565.06 574.226l224.46-190.056a151.596 151.596 0 0 0 75.984 34.896z" fill="#DFDFDF" /><path d="M890.08 891.134H7.372A7.372 7.372 0 0 1 0 883.762v-616.96a7.372 7.372 0 0 1 7.372-7.372h753.252a7.37 7.37 0 0 1 7.33 8.162c-0.02 0.226-0.01 0.456-0.01 0.684a120.444 120.444 0 0 0 28.53 77.802c22.972 27.21 56.55 42.808 92.134 42.808 0.244-0.002 0.5 0.012 0.764-0.014a7.408 7.408 0 0 1 5.664 1.88 7.38 7.38 0 0 1 2.42 5.46v487.55a7.38 7.38 0 0 1-7.376 7.372zM14.744 876.39h867.964V403.504c-37.73-1.634-72.992-18.886-97.496-47.902a135.216 135.216 0 0 1-31.884-81.426H14.744v602.214z" fill="#4A555F" /><path d="M888.606 403.652c-74.654 0-135.394-60.738-135.394-135.394s60.74-135.394 135.394-135.394S1024 193.604 1024 268.26s-60.74 135.392-135.394 135.392z m0-256.042c-66.528 0-120.648 54.124-120.648 120.648s54.12 120.648 120.648 120.648 120.648-54.124 120.648-120.648-54.12-120.648-120.648-120.648z" fill="#4A555F" /><path d="M888.606 268.26m-89.136 0a89.136 89.136 0 1 0 178.272 0 89.136 89.136 0 1 0-178.272 0Z" fill="#FFD452" /><path d="M896.57 364.444l-1.2-14.696a81.876 81.876 0 0 0 13.32-2.206l3.61 14.294a96.626 96.626 0 0 1-15.73 2.608z m-15.922 0a96.566 96.566 0 0 1-15.728-2.608l3.61-14.294c4.348 1.096 8.826 1.838 13.318 2.206l-1.2 14.696z m46.736-7.782l-5.922-13.502a81.386 81.386 0 0 0 11.856-6.432l8.082 12.336a96.266 96.266 0 0 1-14.016 7.598z m-77.554-0.004a96.43 96.43 0 0 1-14.024-7.602l8.082-12.336a81.256 81.256 0 0 0 11.864 6.436l-5.922 13.502z m104.138-17.392l-9.992-10.842a82.082 82.082 0 0 0 9.152-9.94l11.634 9.062a97.592 97.592 0 0 1-10.794 11.72z m-130.738-0.012a97.5 97.5 0 0 1-10.794-11.726l11.634-9.062a81.914 81.914 0 0 0 9.152 9.94l-9.992 10.848z m150.264-25.048l-12.96-7.026a81.612 81.612 0 0 0 5.428-12.366l13.948 4.786a96.5 96.5 0 0 1-6.416 14.606z m-169.778-0.012a95.744 95.744 0 0 1-6.408-14.6l13.948-4.78a80.94 80.94 0 0 0 5.418 12.35l-12.958 7.03zM793.4 284.14a96.606 96.606 0 0 1-1.3-15.886 7.372 7.372 0 0 1 7.372-7.366h0.004a7.372 7.372 0 0 1 7.368 7.38 81.874 81.874 0 0 0 1.1 13.458l-14.544 2.414z m190.418-0.006l-14.552-2.4a82.76 82.76 0 0 0 1.104-13.476h14.744a98.28 98.28 0 0 1-1.296 15.876z m-14.548-29.342a81.62 81.62 0 0 0-3.306-13.084l13.948-4.786a95.944 95.944 0 0 1 3.902 15.464l-14.544 2.406z m-161.326-0.006l-14.542-2.404a96.124 96.124 0 0 1 3.902-15.466l13.948 4.786a81.36 81.36 0 0 0-3.308 13.084z m152.596-25.43a82.24 82.24 0 0 0-7.396-11.3l11.634-9.062a97.24 97.24 0 0 1 8.72 13.332l-12.958 7.03z m-143.86-0.02l-12.96-7.032a97.48 97.48 0 0 1 8.726-13.336l11.634 9.062a82.55 82.55 0 0 0-7.4 11.306z m127.314-21.22a82.68 82.68 0 0 0-10.66-8.31l8.072-12.336a97.38 97.38 0 0 1 12.576 9.798l-9.988 10.848z m-110.756-0.02l-9.984-10.848a96.116 96.116 0 0 1 12.576-9.794l8.064 12.34a82.406 82.406 0 0 0-10.656 8.302z m88.228-14.732a80.88 80.88 0 0 0-12.776-4.384l3.61-14.298a96.186 96.186 0 0 1 15.1 5.182l-5.934 13.5z m-65.698-0.006l-5.932-13.502a96.1 96.1 0 0 1 15.094-5.176l3.6 14.298a81.464 81.464 0 0 0-12.762 4.38z m39.596-6.586c-2.252-0.188-4.714-0.386-6.84-0.276-2.252 0-4.474 0.092-6.672 0.274l-1.21-14.696a98.02 98.02 0 0 1 15.93 0.002l-1.208 14.696zM448.728 647.9c-1.694 0-3.388-0.58-4.766-1.748L2.606 272.428l9.532-11.25 436.59 369.69L786.08 345.222l9.532 11.25-342.118 289.68a7.368 7.368 0 0 1-4.766 1.748z" fill="#4A555F" /><path d="M890.244 891.134H7.396a7.364 7.364 0 0 1-6.916-4.824 7.368 7.368 0 0 1 2.136-8.16l363.15-309.446a7.37 7.37 0 0 1 9.542-0.02l73.506 62.17 73.546-62.35a7.374 7.374 0 0 1 9.552 0.012l363.118 309.632a7.376 7.376 0 0 1-4.786 12.986z m-862.828-14.744h842.818L527.112 583.806l-73.526 62.334a7.374 7.374 0 0 1-9.528 0.008l-73.492-62.158-343.15 292.4z" fill="#4A555F" /><path d="M888.606 202.408h-18.356v40.746l11.562 50.104h13.588l11.564-50.104v-40.746zM875.392 306.474h26.43v26.43h-26.43z" fill="#F58E6F" /></svg>